  0
SECTION
  2
HEADER
  9
$ACADVER
  1
AC1015
  9
$ACADMAINTVER
 70
6
  9
$DWGCODEPAGE
  3
ANSI_1252
  9
$INSBASE
 10
0.0
 20
0.0
 30
0.0
  9
$EXTMIN
 10
1e+20
 20
1e+20
 30
1e+20
  9
$EXTMAX
 10
-1e+20
 20
-1e+20
 30
-1e+20
  9
$LIMMIN
 10
0.0
 20
0.0
  9
$LIMMAX
 10
420.0
 20
297.0
  9
$ORTHOMODE
 70
0
  9
$REGENMODE
 70
1
  9
$FILLMODE
 70
1
  9
$QTEXTMODE
 70
0
  9
$MIRRTEXT
 70
1
  9
$LTSCALE
 40
1.0
  9
$ATTMODE
 70
1
  9
$TEXTSIZE
 40
2.5
  9
$TRACEWID
 40
1.0
  9
$TEXTSTYLE
  7
OpenSans
  9
$CLAYER
  8
0
  9
$CELTYPE
  6
ByLayer
  9
$CECOLOR
 62
256
  9
$CELTSCALE
 40
1.0
  9
$DISPSILH
 70
0
  9
$DIMSCALE
 40
1.0
  9
$DIMASZ
 40
0.175
  9
$DIMEXO
 40
0.125
  9
$DIMDLI
 40
3.75
  9
$DIMRND
 40
0.0
  9
$DIMDLE
 40
0.0
  9
$DIMEXE
 40
0.375
  9
$DIMTP
 40
0.0
  9
$DIMTM
 40
0.0
  9
$DIMTXT
 40
0.25
  9
$DIMCEN
 40
2.5
  9
$DIMTSZ
 40
0.0
  9
$DIMTOL
 70
0
  9
$DIMLIM
 70
0
  9
$DIMTIH
 70
0
  9
$DIMTOH
 70
0
  9
$DIMSE1
 70
0
  9
$DIMSE2
 70
0
  9
$DIMTAD
 70
1
  9
$DIMZIN
 70
12
  9
$DIMBLK
  1
ARCHTICK
  9
$DIMASO
 70
1
  9
$DIMSHO
 70
1
  9
$DIMPOST
  1

  9
$DIMAPOST
  1

  9
$DIMALT
 70
0
  9
$DIMALTD
 70
3
  9
$DIMALTF
 40
0.03937007874
  9
$DIMLFAC
 40
100.0
  9
$DIMTOFL
 70
1
  9
$DIMTVP
 40
0.0
  9
$DIMTIX
 70
0
  9
$DIMSOXD
 70
0
  9
$DIMSAH
 70
0
  9
$DIMBLK1
  1

  9
$DIMBLK2
  1

  9
$DIMSTYLE
  2
EZDXF
  9
$DIMCLRD
 70
0
  9
$DIMCLRE
 70
0
  9
$DIMCLRT
 70
0
  9
$DIMTFAC
 40
0.5
  9
$DIMGAP
 40
0.1
  9
$DIMJUST
 70
0
  9
$DIMSD1
 70
0
  9
$DIMSD2
 70
0
  9
$DIMTOLJ
 70
0
  9
$DIMTZIN
 70
8
  9
$DIMALTZ
 70
0
  9
$DIMALTTZ
 70
0
  9
$DIMUPT
 70
1
  9
$DIMDEC
 70
2
  9
$DIMTDEC
 70
2
  9
$DIMALTU
 70
2
  9
$DIMALTTD
 70
3
  9
$DIMTXSTY
  7
OpenSansCondensed-Light
  9
$DIMAUNIT
 70
0
  9
$DIMADEC
 70
2
  9
$DIMALTRND
 40
0.0
  9
$DIMAZIN
 70
3
  9
$DIMDSEP
 70
46
  9
$DIMATFIT
 70
3
  9
$DIMFRAC
 70
0
  9
$DIMLDRBLK
  1

  9
$DIMLUNIT
 70
2
  9
$DIMLWD
 70
-2
  9
$DIMLWE
 70
-2
  9
$DIMTMOVE
 70
2
  9
$LUNITS
 70
2
  9
$LUPREC
 70
4
  9
$SKETCHINC
 40
1.0
  9
$FILLETRAD
 40
10.0
  9
$AUNITS
 70
0
  9
$AUPREC
 70
2
  9
$MENU
  1
.
  9
$ELEVATION
 40
0.0
  9
$PELEVATION
 40
0.0
  9
$THICKNESS
 40
0.0
  9
$LIMCHECK
 70
0
  9
$CHAMFERA
 40
0.0
  9
$CHAMFERB
 40
0.0
  9
$CHAMFERC
 40
0.0
  9
$CHAMFERD
 40
0.0
  9
$SKPOLY
 70
0
  9
$TDCREATE
 40
2461218.4004282407
  9
$TDUCREATE
 40
2458532.153996898
  9
$TDUPDATE
 40
2461218.4004282407
  9
$TDUUPDATE
 40
2458532.1544311
  9
$TDINDWG
 40
0.0
  9
$TDUSRTIMER
 40
0.0
  9
$USRTIMER
 70
1
  9
$ANGBASE
 50
0.0
  9
$ANGDIR
 70
0
  9
$PDMODE
 70
0
  9
$PDSIZE
 40
0.0
  9
$PLINEWID
 40
0.0
  9
$SPLFRAME
 70
0
  9
$SPLINETYPE
 70
6
  9
$SPLINESEGS
 70
8
  9
$HANDSEED
  5
105
  9
$SURFTAB1
 70
6
  9
$SURFTAB2
 70
6
  9
$SURFTYPE
 70
6
  9
$SURFU
 70
6
  9
$SURFV
 70
6
  9
$UCSBASE
  2

  9
$UCSNAME
  2

  9
$UCSORG
 10
0.0
 20
0.0
 30
0.0
  9
$UCSXDIR
 10
1.0
 20
0.0
 30
0.0
  9
$UCSYDIR
 10
0.0
 20
1.0
 30
0.0
  9
$UCSORTHOREF
  2

  9
$UCSORTHOVIEW
 70
0
  9
$UCSORGTOP
 10
0.0
 20
0.0
 30
0.0
  9
$UCSORGBOTTOM
 10
0.0
 20
0.0
 30
0.0
  9
$UCSORGLEFT
 10
0.0
 20
0.0
 30
0.0
  9
$UCSORGRIGHT
 10
0.0
 20
0.0
 30
0.0
  9
$UCSORGFRONT
 10
0.0
 20
0.0
 30
0.0
  9
$UCSORGBACK
 10
0.0
 20
0.0
 30
0.0
  9
$PUCSBASE
  2

  9
$PUCSNAME
  2

  9
$PUCSORG
 10
0.0
 20
0.0
 30
0.0
  9
$PUCSXDIR
 10
1.0
 20
0.0
 30
0.0
  9
$PUCSYDIR
 10
0.0
 20
1.0
 30
0.0
  9
$PUCSORTHOREF
  2

  9
$PUCSORTHOVIEW
 70
0
  9
$PUCSORGTOP
 10
0.0
 20
0.0
 30
0.0
  9
$PUCSORGBOTTOM
 10
0.0
 20
0.0
 30
0.0
  9
$PUCSORGLEFT
 10
0.0
 20
0.0
 30
0.0
  9
$PUCSORGRIGHT
 10
0.0
 20
0.0
 30
0.0
  9
$PUCSORGFRONT
 10
0.0
 20
0.0
 30
0.0
  9
$PUCSORGBACK
 10
0.0
 20
0.0
 30
0.0
  9
$USERI1
 70
0
  9
$USERI2
 70
0
  9
$USERI3
 70
0
  9
$USERI4
 70
0
  9
$USERI5
 70
0
  9
$USERR1
 40
0.0
  9
$USERR2
 40
0.0
  9
$USERR3
 40
0.0
  9
$USERR4
 40
0.0
  9
$USERR5
 40
0.0
  9
$WORLDVIEW
 70
1
  9
$SHADEDGE
 70
3
  9
$SHADEDIF
 70
70
  9
$TILEMODE
 70
1
  9
$MAXACTVP
 70
64
  9
$PINSBASE
 10
0.0
 20
0.0
 30
0.0
  9
$PLIMCHECK
 70
0
  9
$PEXTMIN
 10
1e+20
 20
1e+20
 30
1e+20
  9
$PEXTMAX
 10
-1e+20
 20
-1e+20
 30
-1e+20
  9
$PLIMMIN
 10
0.0
 20
0.0
  9
$PLIMMAX
 10
420.0
 20
297.0
  9
$UNITMODE
 70
0
  9
$VISRETAIN
 70
1
  9
$PLINEGEN
 70
0
  9
$PSLTSCALE
 70
1
  9
$TREEDEPTH
 70
3020
  9
$CMLSTYLE
  2
Standard
  9
$CMLJUST
 70
0
  9
$CMLSCALE
 40
20.0
  9
$PROXYGRAPHICS
 70
1
  9
$MEASUREMENT
 70
1
  9
$CELWEIGHT
370
-1
  9
$ENDCAPS
280
0
  9
$JOINSTYLE
280
0
  9
$LWDISPLAY
290
0
  9
$INSUNITS
 70
6
  9
$HYPERLINKBASE
  1

  9
$STYLESHEET
  1

  9
$XEDIT
290
1
  9
$CEPSNTYPE
380
0
  9
$PSTYLEMODE
290
1
  9
$FINGERPRINTGUID
  2
{F03838EE-C70F-4712-A018-67F54498CED5}
  9
$VERSIONGUID
  2
{09F6DE65-70FB-41E3-9162-16126D158A8E}
  9
$EXTNAMES
290
1
  9
$PSVPSCALE
 40
0.0
  9
$OLESTARTUP
290
0
  0
ENDSEC
  0
SECTION
  2
CLASSES
  0
CLASS
  1
ACDBDICTIONARYWDFLT
  2
AcDbDictionaryWithDefault
  3
ObjectDBX Classes
 90
0
280
0
281
0
  0
CLASS
  1
SUN
  2
AcDbSun
  3
SCENEOE
 90
1153
280
0
281
0
  0
CLASS
  1
VISUALSTYLE
  2
AcDbVisualStyle
  3
ObjectDBX Classes
 90
4095
280
0
281
0
  0
CLASS
  1
MATERIAL
  2
AcDbMaterial
  3
ObjectDBX Classes
 90
1153
280
0
281
0
  0
CLASS
  1
SCALE
  2
AcDbScale
  3
ObjectDBX Classes
 90
1153
280
0
281
0
  0
CLASS
  1
TABLESTYLE
  2
AcDbTableStyle
  3
ObjectDBX Classes
 90
4095
280
0
281
0
  0
CLASS
  1
MLEADERSTYLE
  2
AcDbMLeaderStyle
  3
ACDB_MLEADERSTYLE_CLASS
 90
4095
280
0
281
0
  0
CLASS
  1
DICTIONARYVAR
  2
AcDbDictionaryVar
  3
ObjectDBX Classes
 90
0
280
0
281
0
  0
CLASS
  1
CELLSTYLEMAP
  2
AcDbCellStyleMap
  3
ObjectDBX Classes
 90
1152
280
0
281
0
  0
CLASS
  1
MENTALRAYRENDERSETTINGS
  2
AcDbMentalRayRenderSettings
  3
SCENEOE
 90
1024
280
0
281
0
  0
CLASS
  1
ACDBDETAILVIEWSTYLE
  2
AcDbDetailViewStyle
  3
ObjectDBX Classes
 90
1025
280
0
281
0
  0
CLASS
  1
ACDBSECTIONVIEWSTYLE
  2
AcDbSectionViewStyle
  3
ObjectDBX Classes
 90
1025
280
0
281
0
  0
CLASS
  1
RASTERVARIABLES
  2
AcDbRasterVariables
  3
ISM
 90
0
280
0
281
0
  0
CLASS
  1
ACDBPLACEHOLDER
  2
AcDbPlaceHolder
  3
ObjectDBX Classes
 90
0
280
0
281
0
  0
CLASS
  1
LAYOUT
  2
AcDbLayout
  3
ObjectDBX Classes
 90
0
280
0
281
0
  0
ENDSEC
  0
SECTION
  2
TABLES
  0
TABLE
  2
VPORT
  5
8
330
0
100
AcDbSymbolTable
 70
1
  0
VPORT
  5
23
330
8
100
AcDbSymbolTableRecord
100
AcDbViewportTableRecord
  2
*Active
 70
0
 10
0.0
 20
0.0
 11
1.0
 21
1.0
 12
0.0
 22
0.0
 13
0.0
 23
0.0
 14
0.5
 24
0.5
 15
0.5
 25
0.5
 16
0.0
 26
0.0
 36
1.0
 17
0.0
 27
0.0
 37
0.0
 40
1000.0
 41
1.34
 42
50.0
 43
0.0
 44
0.0
 50
0.0
 51
0.0
 71
0
 72
1000
 73
1
 74
3
 75
0
 76
0
 77
0
 78
0
281
0
 65
0
146
0.0
  0
ENDTAB
  0
TABLE
  2
LTYPE
  5
2
330
0
100
AcDbSymbolTable
 70
21
  0
LTYPE
  5
24
330
2
100
AcDbSymbolTableRecord
100
AcDbLinetypeTableRecord
  2
ByBlock
 70
0
  3

 72
65
 73
0
 40
0.0
  0
LTYPE
  5
25
330
2
100
AcDbSymbolTableRecord
100
AcDbLinetypeTableRecord
  2
ByLayer
 70
0
  3

 72
65
 73
0
 40
0.0
  0
LTYPE
  5
26
330
2
100
AcDbSymbolTableRecord
100
AcDbLinetypeTableRecord
  2
Continuous
 70
0
  3

 72
65
 73
0
 40
0.0
  0
LTYPE
  5
2F
330
2
100
AcDbSymbolTableRecord
100
AcDbLinetypeTableRecord
  2
CENTER
 70
0
  3
Center ____ _ ____ _ ____ _ ____ _ ____ _ ____
 72
65
 73
4
 40
5.08
 49
3.175
 74
0
 49
-0.635
 74
0
 49
0.635
 74
0
 49
-0.635
 74
0
  0
LTYPE
  5
30
330
2
100
AcDbSymbolTableRecord
100
AcDbLinetypeTableRecord
  2
CENTERX2
 70
0
  3
Center (2x) ________  __  ________  __  ________
 72
65
 73
4
 40
8.89
 49
6.35
 74
0
 49
-0.635
 74
0
 49
1.27
 74
0
 49
-0.635
 74
0
  0
LTYPE
  5
31
330
2
100
AcDbSymbolTableRecord
100
AcDbLinetypeTableRecord
  2
CENTER2
 70
0
  3
Center (.5x) ____ _ ____ _ ____ _ ____ _ ____
 72
65
 73
4
 40
2.54
 49
1.587
 74
0
 49
-0.318
 74
0
 49
0.318
 74
0
 49
-0.318
 74
0
  0
LTYPE
  5
32
330
2
100
AcDbSymbolTableRecord
100
AcDbLinetypeTableRecord
  2
DASHED
 70
0
  3
Dashed __ __ __ __ __ __ __ __ __ __ __ __ __ _
 72
65
 73
2
 40
1.524
 49
1.27
 74
0
 49
-0.254
 74
0
  0
LTYPE
  5
33
330
2
100
AcDbSymbolTableRecord
100
AcDbLinetypeTableRecord
  2
DASHEDX2
 70
0
  3
Dashed (2x) ____  ____  ____  ____  ____  ____
 72
65
 73
2
 40
3.048
 49
2.54
 74
0
 49
-0.508
 74
0
  0
LTYPE
  5
34
330
2
100
AcDbSymbolTableRecord
100
AcDbLinetypeTableRecord
  2
DASHED2
 70
0
  3
Dashed (.5x) _ _ _ _ _ _ _ _ _ _ _ _ _ _
 72
65
 73
2
 40
0.762
 49
0.635
 74
0
 49
-0.127
 74
0
  0
LTYPE
  5
35
330
2
100
AcDbSymbolTableRecord
100
AcDbLinetypeTableRecord
  2
PHANTOM
 70
0
  3
Phantom ______  __  __  ______  __  __  ______
 72
65
 73
6
 40
6.35
 49
3.175
 74
0
 49
-0.635
 74
0
 49
0.635
 74
0
 49
-0.635
 74
0
 49
0.635
 74
0
 49
-0.635
 74
0
  0
LTYPE
  5
36
330
2
100
AcDbSymbolTableRecord
100
AcDbLinetypeTableRecord
  2
PHANTOMX2
 70
0
  3
Phantom (2x)____________    ____    ____    ____________
 72
65
 73
6
 40
10.795
 49
6.35
 74
0
 49
-0.635
 74
0
 49
1.27
 74
0
 49
-0.635
 74
0
 49
1.27
 74
0
 49
-0.635
 74
0
  0
LTYPE
  5
37
330
2
100
AcDbSymbolTableRecord
100
AcDbLinetypeTableRecord
  2
PHANTOM2
 70
0
  3
Phantom (.5x) ___ _ _ ___ _ _ ___ _ _ ___ _ _ ___
 72
65
 73
6
 40
3.175
 49
1.587
 74
0
 49
-0.318
 74
0
 49
0.318
 74
0
 49
-0.318
 74
0
 49
0.318
 74
0
 49
-0.318
 74
0
  0
LTYPE
  5
38
330
2
100
AcDbSymbolTableRecord
100
AcDbLinetypeTableRecord
  2
DASHDOT
 70
0
  3
Dash dot __ . __ . __ . __ . __ . __ . __ . __
 72
65
 73
4
 40
3.556
 49
2.54
 74
0
 49
-0.508
 74
0
 49
0.0
 74
0
 49
-0.508
 74
0
  0
LTYPE
  5
39
330
2
100
AcDbSymbolTableRecord
100
AcDbLinetypeTableRecord
  2
DASHDOTX2
 70
0
  3
Dash dot (2x) ____  .  ____  .  ____  .  ____
 72
65
 73
4
 40
6.096
 49
5.08
 74
0
 49
-0.508
 74
0
 49
0.0
 74
0
 49
-0.508
 74
0
  0
LTYPE
  5
3A
330
2
100
AcDbSymbolTableRecord
100
AcDbLinetypeTableRecord
  2
DASHDOT2
 70
0
  3
Dash dot (.5x) _ . _ . _ . _ . _ . _ . _ . _
 72
65
 73
4
 40
1.778
 49
1.27
 74
0
 49
-0.254
 74
0
 49
0.0
 74
0
 49
-0.254
 74
0
  0
LTYPE
  5
3B
330
2
100
AcDbSymbolTableRecord
100
AcDbLinetypeTableRecord
  2
DOT
 70
0
  3
Dot .  .  .  .  .  .  .  .  .  .  .  .  .  .  .  .
 72
65
 73
2
 40
0.508
 49
0.0
 74
0
 49
-0.508
 74
0
  0
LTYPE
  5
3C
330
2
100
AcDbSymbolTableRecord
100
AcDbLinetypeTableRecord
  2
DOTX2
 70
0
  3
Dot (2x) .    .    .    .    .    .    .    . 
 72
65
 73
2
 40
1.016
 49
0.0
 74
0
 49
-1.016
 74
0
  0
LTYPE
  5
3D
330
2
100
AcDbSymbolTableRecord
100
AcDbLinetypeTableRecord
  2
DOT2
 70
0
  3
Dot (.5) . . . . . . . . . . . . . . . . . . . 
 72
65
 73
2
 40
0.254
 49
0.0
 74
0
 49
-0.254
 74
0
  0
LTYPE
  5
3E
330
2
100
AcDbSymbolTableRecord
100
AcDbLinetypeTableRecord
  2
DIVIDE
 70
0
  3
Divide __ . . __ . . __ . . __ . . __ . . __
 72
65
 73
6
 40
4.064
 49
2.54
 74
0
 49
-0.508
 74
0
 49
0.0
 74
0
 49
-0.508
 74
0
 49
0.0
 74
0
 49
-0.508
 74
0
  0
LTYPE
  5
3F
330
2
100
AcDbSymbolTableRecord
100
AcDbLinetypeTableRecord
  2
DIVIDEX2
 70
0
  3
Divide (2x) ____  . .  ____  . .  ____  . .  ____
 72
65
 73
6
 40
6.604
 49
5.08
 74
0
 49
-0.508
 74
0
 49
0.0
 74
0
 49
-0.508
 74
0
 49
0.0
 74
0
 49
-0.508
 74
0
  0
LTYPE
  5
40
330
2
100
AcDbSymbolTableRecord
100
AcDbLinetypeTableRecord
  2
DIVIDE2
 70
0
  3
Divide(.5x) _ . _ . _ . _ . _ . _ . _ . _
 72
65
 73
6
 40
2.032
 49
1.27
 74
0
 49
-0.254
 74
0
 49
0.0
 74
0
 49
-0.254
 74
0
 49
0.0
 74
0
 49
-0.254
 74
0
  0
ENDTAB
  0
TABLE
  2
LAYER
  5
1
330
0
100
AcDbSymbolTable
 70
3
  0
LAYER
  5
27
330
1
100
AcDbSymbolTableRecord
100
AcDbLayerTableRecord
  2
0
 70
0
 62
7
  6
Continuous
370
-3
390
13
  0
LAYER
  5
28
330
1
100
AcDbSymbolTableRecord
100
AcDbLayerTableRecord
  2
Defpoints
 70
0
 62
7
  6
Continuous
290
0
370
-3
390
13
  0
LAYER
  5
8A
330
1
100
AcDbSymbolTableRecord
100
AcDbLayerTableRecord
  2
SHAPES
 70
0
 62
7
  6
Continuous
370
-3
390
13
  0
ENDTAB
  0
TABLE
  2
STYLE
  5
5
330
0
100
AcDbSymbolTable
 70
26
  0
STYLE
  5
29
330
5
100
AcDbSymbolTableRecord
100
AcDbTextStyleTableRecord
  2
Standard
 70
0
 40
0.0
 41
1.0
 50
0.0
 71
0
 42
2.5
  3
txt
  4

  0
STYLE
  5
41
330
5
100
AcDbSymbolTableRecord
100
AcDbTextStyleTableRecord
  2
OpenSans-Light
 70
0
 40
0.0
 41
1.0
 50
0.0
 71
0
 42
2.5
  3
OpenSans-Light.ttf
  4

  0
STYLE
  5
42
330
5
100
AcDbSymbolTableRecord
100
AcDbTextStyleTableRecord
  2
OpenSans-Light-Italic
 70
0
 40
0.0
 41
1.0
 50
0.0
 71
0
 42
2.5
  3
OpenSans-LightItalic.ttf
  4

  0
STYLE
  5
43
330
5
100
AcDbSymbolTableRecord
100
AcDbTextStyleTableRecord
  2
OpenSans
 70
0
 40
0.0
 41
1.0
 50
0.0
 71
0
 42
2.5
  3
OpenSans-Regular.ttf
  4

  0
STYLE
  5
44
330
5
100
AcDbSymbolTableRecord
100
AcDbTextStyleTableRecord
  2
OpenSans-Italic
 70
0
 40
0.0
 41
1.0
 50
0.0
 71
0
 42
2.5
  3
OpenSans-Italic.ttf
  4

  0
STYLE
  5
45
330
5
100
AcDbSymbolTableRecord
100
AcDbTextStyleTableRecord
  2
OpenSans-SemiBold
 70
0
 40
0.0
 41
1.0
 50
0.0
 71
0
 42
2.5
  3
OpenSans-SemiBold.ttf
  4

  0
STYLE
  5
46
330
5
100
AcDbSymbolTableRecord
100
AcDbTextStyleTableRecord
  2
OpenSans-SemiBoldItalic
 70
0
 40
0.0
 41
1.0
 50
0.0
 71
0
 42
2.5
  3
OpenSans-SemiBoldItalic.ttf
  4

  0
STYLE
  5
47
330
5
100
AcDbSymbolTableRecord
100
AcDbTextStyleTableRecord
  2
OpenSans-Bold
 70
0
 40
0.0
 41
1.0
 50
0.0
 71
0
 42
2.5
  3
OpenSans-Bold.ttf
  4

  0
STYLE
  5
48
330
5
100
AcDbSymbolTableRecord
100
AcDbTextStyleTableRecord
  2
OpenSans-BoldItalic
 70
0
 40
0.0
 41
1.0
 50
0.0
 71
0
 42
2.5
  3
OpenSans-BoldItalic.ttf
  4

  0
STYLE
  5
49
330
5
100
AcDbSymbolTableRecord
100
AcDbTextStyleTableRecord
  2
OpenSans-ExtraBold
 70
0
 40
0.0
 41
1.0
 50
0.0
 71
0
 42
2.5
  3
OpenSans-ExtraBold.ttf
  4

  0
STYLE
  5
4A
330
5
100
AcDbSymbolTableRecord
100
AcDbTextStyleTableRecord
  2
OpenSans-ExtraBoldItalic
 70
0
 40
0.0
 41
1.0
 50
0.0
 71
0
 42
2.5
  3
OpenSans-ExtraBoldItalic.ttf
  4

  0
STYLE
  5
4B
330
5
100
AcDbSymbolTableRecord
100
AcDbTextStyleTableRecord
  2
OpenSansCondensed-Bold
 70
0
 40
0.0
 41
1.0
 50
0.0
 71
0
 42
2.5
  3
OpenSansCondensed-Bold.ttf
  4

  0
STYLE
  5
4C
330
5
100
AcDbSymbolTableRecord
100
AcDbTextStyleTableRecord
  2
OpenSansCondensed-Light
 70
0
 40
0.0
 41
1.0
 50
0.0
 71
0
 42
2.5
  3
OpenSansCondensed-Light.ttf
  4

  0
STYLE
  5
4D
330
5
100
AcDbSymbolTableRecord
100
AcDbTextStyleTableRecord
  2
OpenSansCondensed-Italic
 70
0
 40
0.0
 41
1.0
 50
0.0
 71
0
 42
2.5
  3
OpenSansCondensed-LightItalic.ttf
  4

  0
STYLE
  5
4E
330
5
100
AcDbSymbolTableRecord
100
AcDbTextStyleTableRecord
  2
LiberationSans
 70
0
 40
0.0
 41
1.0
 50
0.0
 71
0
 42
2.5
  3
LiberationSans-Regular.ttf
  4

  0
STYLE
  5
4F
330
5
100
AcDbSymbolTableRecord
100
AcDbTextStyleTableRecord
  2
LiberationSans-Bold
 70
0
 40
0.0
 41
1.0
 50
0.0
 71
0
 42
2.5
  3
LiberationSans-Bold.ttf
  4

  0
STYLE
  5
50
330
5
100
AcDbSymbolTableRecord
100
AcDbTextStyleTableRecord
  2
LiberationSans-BoldItalic
 70
0
 40
0.0
 41
1.0
 50
0.0
 71
0
 42
2.5
  3
LiberationSans-BoldItalic.ttf
  4

  0
STYLE
  5
51
330
5
100
AcDbSymbolTableRecord
100
AcDbTextStyleTableRecord
  2
LiberationSans-Italic
 70
0
 40
0.0
 41
1.0
 50
0.0
 71
0
 42
2.5
  3
LiberationSans-Italic.ttf
  4

  0
STYLE
  5
52
330
5
100
AcDbSymbolTableRecord
100
AcDbTextStyleTableRecord
  2
LiberationSerif
 70
0
 40
0.0
 41
1.0
 50
0.0
 71
0
 42
2.5
  3
LiberationSerif-Regular.ttf
  4

  0
STYLE
  5
53
330
5
100
AcDbSymbolTableRecord
100
AcDbTextStyleTableRecord
  2
LiberationSerif-Bold
 70
0
 40
0.0
 41
1.0
 50
0.0
 71
0
 42
2.5
  3
LiberationSerif-Bold.ttf
  4

  0
STYLE
  5
54
330
5
100
AcDbSymbolTableRecord
100
AcDbTextStyleTableRecord
  2
LiberationSerif-BoldItalic
 70
0
 40
0.0
 41
1.0
 50
0.0
 71
0
 42
2.5
  3
LiberationSerif-BoldItalic.ttf
  4

  0
STYLE
  5
55
330
5
100
AcDbSymbolTableRecord
100
AcDbTextStyleTableRecord
  2
LiberationSerif-Italic
 70
0
 40
0.0
 41
1.0
 50
0.0
 71
0
 42
2.5
  3
LiberationSerif-Italic.ttf
  4

  0
STYLE
  5
56
330
5
100
AcDbSymbolTableRecord
100
AcDbTextStyleTableRecord
  2
LiberationMono
 70
0
 40
0.0
 41
1.0
 50
0.0
 71
0
 42
2.5
  3
LiberationMono-Regular.ttf
  4

  0
STYLE
  5
57
330
5
100
AcDbSymbolTableRecord
100
AcDbTextStyleTableRecord
  2
LiberationMono-Bold
 70
0
 40
0.0
 41
1.0
 50
0.0
 71
0
 42
2.5
  3
LiberationMono-Bold.ttf
  4

  0
STYLE
  5
58
330
5
100
AcDbSymbolTableRecord
100
AcDbTextStyleTableRecord
  2
LiberationMono-BoldItalic
 70
0
 40
0.0
 41
1.0
 50
0.0
 71
0
 42
2.5
  3
LiberationMono-BoldItalic.ttf
  4

  0
STYLE
  5
59
330
5
100
AcDbSymbolTableRecord
100
AcDbTextStyleTableRecord
  2
LiberationMono-Italic
 70
0
 40
0.0
 41
1.0
 50
0.0
 71
0
 42
2.5
  3
LiberationMono-Italic.ttf
  4

  0
ENDTAB
  0
TABLE
  2
VIEW
  5
7
330
0
100
AcDbSymbolTable
 70
0
  0
ENDTAB
  0
TABLE
  2
UCS
  5
6
330
0
100
AcDbSymbolTable
 70
0
  0
ENDTAB
  0
TABLE
  2
APPID
  5
3
330
0
100
AcDbSymbolTable
 70
3
  0
APPID
  5
2A
330
3
100
AcDbSymbolTableRecord
100
AcDbRegAppTableRecord
  2
ACAD
 70
0
  0
APPID
  5
102
330
3
100
AcDbSymbolTableRecord
100
AcDbRegAppTableRecord
  2
HATCHBACKGROUNDCOLOR
 70
0
  0
APPID
  5
103
330
3
100
AcDbSymbolTableRecord
100
AcDbRegAppTableRecord
  2
EZDXF
 70
0
  0
ENDTAB
  0
TABLE
  2
DIMSTYLE
  5
4
330
0
100
AcDbSymbolTable
 70
12
100
AcDbDimStyleTable
  0
DIMSTYLE
105
2B
330
4
100
AcDbSymbolTableRecord
100
AcDbDimStyleTableRecord
  2
Standard
 70
0
  3

  4

 40
1.0
 41
2.5
 42
0.625
 43
3.75
 44
1.25
 45
0.0
 46
0.0
 47
0.0
 48
0.0
140
2.5
141
2.5
142
0.0
143
0.03937007874
144
1.0
145
0.0
146
1.0
147
0.625
148
0.0
 71
0
 72
0
 73
0
 74
0
 75
0
 76
0
 77
1
 78
8
 79
3
170
0
171
3
172
1
173
0
174
0
175
0
176
0
177
0
178
0
179
2
271
2
272
2
273
2
274
3
275
0
276
0
277
2
278
44
279
0
280
0
281
0
282
0
283
0
284
8
285
0
286
0
288
0
289
3
371
-2
372
-2
  0
DIMSTYLE
105
73
330
4
100
AcDbSymbolTableRecord
100
AcDbDimStyleTableRecord
  2
EZDXF
 70
0
  3

  4

 40
1.0
 41
0.175
 42
0.125
 43
3.75
 44
0.375
 45
0.0
 46
0.0
 47
0.0
 48
0.0
140
0.25
141
2.5
142
0.0
143
0.03937007874
144
100.0
145
0.0
146
0.5
147
0.1
148
0.0
 71
0
 72
0
 73
0
 74
0
 75
0
 76
0
 77
1
 78
12
 79
3
170
0
171
3
172
1
173
0
174
0
175
0
176
0
177
0
178
0
179
2
271
2
272
2
273
2
274
3
275
0
276
0
277
2
278
46
279
2
280
0
281
0
282
0
283
0
284
8
285
0
286
0
288
1
289
3
340
4C
342
74
371
-2
372
-2
  0
DIMSTYLE
105
7C
330
4
100
AcDbSymbolTableRecord
100
AcDbDimStyleTableRecord
  2
EZ_M_100_H25_CM
 70
0
  3

  4

 40
1.0
 41
0.25
 42
0.125
 43
3.75
 44
0.375
 45
0.0
 46
0.0
 47
0.0
 48
0.0
140
0.25
141
2.5
142
0.125
143
0.03937007874
144
100.0
145
0.0
146
0.5
147
0.1
148
0.0
 71
0
 72
0
 73
0
 74
0
 75
0
 76
0
 77
1
 78
12
 79
3
170
0
171
3
172
1
173
0
174
0
175
0
176
0
177
0
178
0
179
2
271
2
272
2
273
2
274
3
275
0
276
0
277
2
278
46
279
2
280
0
281
0
282
0
283
0
284
8
285
0
286
0
288
1
289
3
340
4C
371
-2
372
-2
  0
DIMSTYLE
105
7D
330
4
100
AcDbSymbolTableRecord
100
AcDbDimStyleTableRecord
  2
EZ_M_50_H25_CM
 70
0
  3

  4

 40
1.0
 41
0.125
 42
0.0625
 43
3.75
 44
0.1875
 45
0.0
 46
0.0
 47
0.0
 48
0.0
140
0.125
141
2.5
142
0.0625
143
0.03937007874
144
100.0
145
0.0
146
0.5
147
0.05
148
0.0
 71
0
 72
0
 73
0
 74
0
 75
0
 76
0
 77
1
 78
12
 79
3
170
0
171
3
172
1
173
0
174
0
175
0
176
0
177
0
178
0
179
2
271
2
272
2
273
2
274
3
275
0
276
0
277
2
278
46
279
2
280
0
281
0
282
0
283
0
284
8
285
0
286
0
288
1
289
3
340
4C
371
-2
372
-2
  0
DIMSTYLE
105
7E
330
4
100
AcDbSymbolTableRecord
100
AcDbDimStyleTableRecord
  2
EZ_M_25_H25_CM
 70
0
  3

  4

 40
1.0
 41
0.0625
 42
0.03125
 43
3.75
 44
0.09375
 45
0.0
 46
0.0
 47
0.0
 48
0.0
140
0.0625
141
2.5
142
0.03125
143
0.03937007874
144
100.0
145
0.0
146
0.5
147
0.025
148
0.0
 71
0
 72
0
 73
0
 74
0
 75
0
 76
0
 77
1
 78
12
 79
3
170
0
171
3
172
1
173
0
174
0
175
0
176
0
177
0
178
0
179
2
271
2
272
2
273
2
274
3
275
0
276
0
277
2
278
46
279
2
280
0
281
0
282
0
283
0
284
8
285
0
286
0
288
1
289
3
340
4C
371
-2
372
-2
  0
DIMSTYLE
105
7F
330
4
100
AcDbSymbolTableRecord
100
AcDbDimStyleTableRecord
  2
EZ_M_20_H25_CM
 70
0
  3

  4

 40
1.0
 41
0.05
 42
0.025
 43
3.75
 44
0.07500000000000001
 45
0.0
 46
0.0
 47
0.0
 48
0.0
140
0.05
141
2.5
142
0.025
143
0.03937007874
144
100.0
145
0.0
146
0.5
147
0.020000000000000004
148
0.0
 71
0
 72
0
 73
0
 74
0
 75
0
 76
0
 77
1
 78
12
 79
3
170
0
171
3
172
1
173
0
174
0
175
0
176
0
177
0
178
0
179
2
271
2
272
2
273
2
274
3
275
0
276
0
277
2
278
46
279
2
280
0
281
0
282
0
283
0
284
8
285
0
286
0
288
1
289
3
340
4C
371
-2
372
-2
  0
DIMSTYLE
105
80
330
4
100
AcDbSymbolTableRecord
100
AcDbDimStyleTableRecord
  2
EZ_M_10_H25_CM
 70
0
  3

  4

 40
1.0
 41
0.025
 42
0.0125
 43
3.75
 44
0.037500000000000006
 45
0.0
 46
0.0
 47
0.0
 48
0.0
140
0.025
141
2.5
142
0.0125
143
0.03937007874
144
100.0
145
0.0
146
0.5
147
0.010000000000000002
148
0.0
 71
0
 72
0
 73
0
 74
0
 75
0
 76
0
 77
1
 78
12
 79
3
170
0
171
3
172
1
173
0
174
0
175
0
176
0
177
0
178
0
179
2
271
2
272
2
273
2
274
3
275
0
276
0
277
2
278
46
279
2
280
0
281
0
282
0
283
0
284
8
285
0
286
0
288
1
289
3
340
4C
371
-2
372
-2
  0
DIMSTYLE
105
81
330
4
100
AcDbSymbolTableRecord
100
AcDbDimStyleTableRecord
  2
EZ_M_5_H25_CM
 70
0
  3

  4

 40
1.0
 41
0.0125
 42
0.00625
 43
3.75
 44
0.018750000000000003
 45
0.0
 46
0.0
 47
0.0
 48
0.0
140
0.0125
141
2.5
142
0.00625
143
0.03937007874
144
100.0
145
0.0
146
0.5
147
0.005000000000000001
148
0.0
 71
0
 72
0
 73
0
 74
0
 75
0
 76
0
 77
1
 78
12
 79
3
170
0
171
3
172
1
173
0
174
0
175
0
176
0
177
0
178
0
179
2
271
2
272
2
273
2
274
3
275
0
276
0
277
2
278
46
279
2
280
0
281
0
282
0
283
0
284
8
285
0
286
0
288
1
289
3
340
4C
371
-2
372
-2
  0
DIMSTYLE
105
82
330
4
100
AcDbSymbolTableRecord
100
AcDbDimStyleTableRecord
  2
EZ_M_1_H25_CM
 70
0
  3

  4

 40
1.0
 41
0.0025
 42
0.00125
 43
3.75
 44
0.00375
 45
0.0
 46
0.0
 47
0.0
 48
0.0
140
0.0025
141
2.5
142
0.00125
143
0.03937007874
144
100.0
145
0.0
146
0.5
147
0.001
148
0.0
 71
0
 72
0
 73
0
 74
0
 75
0
 76
0
 77
1
 78
12
 79
3
170
0
171
3
172
1
173
0
174
0
175
0
176
0
177
0
178
0
179
2
271
2
272
2
273
2
274
3
275
0
276
0
277
2
278
46
279
2
280
0
281
0
282
0
283
0
284
8
285
0
286
0
288
1
289
3
340
4C
371
-2
372
-2
  0
DIMSTYLE
105
83
330
4
100
AcDbSymbolTableRecord
100
AcDbDimStyleTableRecord
  2
EZ_RADIUS
 70
0
  3

  4

 40
1.0
 41
0.25
 42
0.125
 43
3.75
 44
0.375
 45
0.0
 46
0.0
 47
0.0
 48
0.0
140
0.25
141
0.0
142
0.0
143
0.03937007874
144
100.0
145
0.0
146
0.5
147
0.1
148
0.0
 71
0
 72
0
 73
0
 74
0
 75
0
 76
0
 77
1
 78
12
 79
3
170
0
171
3
172
0
173
0
174
0
175
0
176
0
177
0
178
0
179
2
271
2
272
2
273
2
274
3
275
0
276
0
277
2
278
46
279
1
280
0
281
0
282
0
283
0
284
8
285
0
286
0
288
1
289
3
340
4C
342
84
371
-2
372
-2
  0
DIMSTYLE
105
88
330
4
100
AcDbSymbolTableRecord
100
AcDbDimStyleTableRecord
  2
EZ_RADIUS_INSIDE
 70
0
  3

  4

 40
1.0
 41
0.25
 42
0.125
 43
3.75
 44
0.375
 45
0.0
 46
0.0
 47
0.0
 48
0.0
140
0.25
141
0.0
142
0.0
143
0.03937007874
144
100.0
145
0.0
146
0.5
147
0.1
148
0.0
 71
0
 72
0
 73
0
 74
0
 75
0
 76
0
 77
0
 78
12
 79
3
170
0
171
3
172
0
173
0
174
1
175
0
176
0
177
0
178
0
179
2
271
2
272
2
273
2
274
3
275
0
276
0
277
2
278
46
279
0
280
0
281
0
282
0
283
0
284
8
285
0
286
0
288
1
289
0
340
4C
342
84
371
-2
372
-2
  0
DIMSTYLE
105
89
330
4
100
AcDbSymbolTableRecord
100
AcDbDimStyleTableRecord
  2
EZ_CURVED
 70
0
  3

  4

 40
1.0
 41
0.25
 42
0.125
 43
3.75
 44
0.375
 45
0.0
 46
0.0
 47
0.0
 48
0.0
140
0.25
141
2.5
142
0.0
143
0.03937007874
144
100.0
145
0.0
146
0.5
147
0.1
148
0.0
 71
0
 72
0
 73
0
 74
0
 75
0
 76
0
 77
1
 78
12
 79
2
 90
2
170
0
171
3
172
1
173
0
174
0
175
0
176
0
177
0
178
0
179
2
271
2
272
2
273
2
274
3
275
0
276
0
277
2
278
46
279
2
280
0
281
0
282
0
283
0
284
8
285
0
286
0
288
1
289
3
340
4C
371
-2
372
-2
  0
ENDTAB
  0
TABLE
  2
BLOCK_RECORD
  5
9
330
0
100
AcDbSymbolTable
 70
5
  0
BLOCK_RECORD
  5
17
330
9
100
AcDbSymbolTableRecord
100
AcDbBlockTableRecord
  2
*Model_Space
340
1A
  0
BLOCK_RECORD
  5
1B
330
9
100
AcDbSymbolTableRecord
100
AcDbBlockTableRecord
  2
*Paper_Space
340
1E
  0
BLOCK_RECORD
  5
74
330
9
100
AcDbSymbolTableRecord
100
AcDbBlockTableRecord
  2
_ARCHTICK
340
0
  0
BLOCK_RECORD
  5
78
330
9
100
AcDbSymbolTableRecord
100
AcDbBlockTableRecord
  2
_CLOSEDFILLED
340
0
  0
BLOCK_RECORD
  5
84
330
9
100
AcDbSymbolTableRecord
100
AcDbBlockTableRecord
  2
_CLOSEDBLANK
340
0
  0
ENDTAB
  0
ENDSEC
  0
SECTION
  2
BLOCKS
  0
BLOCK
  5
18
330
17
100
AcDbEntity
  8
0
100
AcDbBlockBegin
  2
*Model_Space
 70
0
 10
0.0
 20
0.0
 30
0.0
  3
*Model_Space
  1

  0
ENDBLK
  5
19
330
17
100
AcDbEntity
  8
0
100
AcDbBlockEnd
  0
BLOCK
  5
1C
330
1B
100
AcDbEntity
  8
0
100
AcDbBlockBegin
  2
*Paper_Space
 70
0
 10
0.0
 20
0.0
 30
0.0
  3
*Paper_Space
  1

  0
ENDBLK
  5
1D
330
1B
100
AcDbEntity
  8
0
100
AcDbBlockEnd
  0
BLOCK
  5
75
330
74
100
AcDbEntity
  8
0
100
AcDbBlockBegin
  2
_ARCHTICK
 70
0
 10
0.0
 20
0.0
 30
0.0
  3
_ARCHTICK
  1

  0
LWPOLYLINE
  5
77
330
74
100
AcDbEntity
  8
0
  6
BYBLOCK
 62
0
100
AcDbPolyline
 90
2
 70
0
 43
0.15
 10
-0.5
 20
-0.5
 10
0.5
 20
0.5
  0
ENDBLK
  5
76
330
74
100
AcDbEntity
  8
0
100
AcDbBlockEnd
  0
BLOCK
  5
79
330
78
100
AcDbEntity
  8
0
100
AcDbBlockBegin
  2
_CLOSEDFILLED
 70
0
 10
0.0
 20
0.0
 30
0.0
  3
_CLOSEDFILLED
  1

  0
SOLID
  5
7B
330
78
100
AcDbEntity
  8
0
  6
BYBLOCK
 62
0
100
AcDbTrace
 10
-1.0
 20
0.16439898372402537
 30
0.0
 11
0.0
 21
0.0
 31
0.0
 12
-1.0
 22
-0.16439898372402537
 32
0.0
 13
-1.0
 23
-0.16439898372402537
 33
0.0
  0
ENDBLK
  5
7A
330
78
100
AcDbEntity
  8
0
100
AcDbBlockEnd
  0
BLOCK
  5
85
330
84
100
AcDbEntity
  8
0
100
AcDbBlockBegin
  2
_CLOSEDBLANK
 70
0
 10
0.0
 20
0.0
 30
0.0
  3
_CLOSEDBLANK
  1

  0
LWPOLYLINE
  5
87
330
84
100
AcDbEntity
  8
0
  6
BYBLOCK
 62
0
100
AcDbPolyline
 90
3
 70
1
 10
-1.0
 20
0.16439898372402537
 10
0.0
 20
0.0
 10
-1.0
 20
-0.16439898372402537
  0
ENDBLK
  5
86
330
84
100
AcDbEntity
  8
0
100
AcDbBlockEnd
  0
ENDSEC
  0
SECTION
  2
ENTITIES
  0
HATCH
  5
8B
330
17
100
AcDbEntity
  8
0
 62
98
100
AcDbHatch
 10
0.0
 20
0.0
 30
0.0
210
0.0
220
0.0
230
1.0
  2
SOLID
 70
1
 71
0
 91
1
 92
3
 72
0
 73
1
 93
6
 10
538.0748797187105
 20
-82.02697005068111
 10
635.3210136366033
 20
-81.59172526524361
 10
683.8210136366032
 20
2.4127389018469545
 10
635.0748797187103
 20
85.9819582835
 10
538.3287458008175
 20
86.41273890184695
 10
489.82874580081756
 20
2.4082747347563846
 97
0
 75
1
 76
1
 98
0
  0
LWPOLYLINE
  5
8C
330
17
100
AcDbEntity
  8
0
 62
250
100
AcDbPolyline
 90
6
 70
1
 10
538.0748797187105
 20
-82.02697005068111
 10
635.3210136366033
 20
-81.59172526524361
 10
683.8210136366032
 20
2.4127389018469545
 10
635.0748797187103
 20
85.9819582835
 10
538.3287458008175
 20
86.41273890184695
 10
489.82874580081756
 20
2.4082747347563846
  0
MTEXT
  5
8D
330
17
100
AcDbEntity
  8
0
 62
2
100
AcDbMText
 10
586.7415463853771
 20
2.266169251004262
 30
0.0
 40
10.0
 71
5
  1
IsEngine: False\P MB: 4\P wagon: 0
  0
HATCH
  5
8E
330
17
100
AcDbEntity
  8
0
 62
1
100
AcDbHatch
 10
0.0
 20
0.0
 30
0.0
210
0.0
220
0.0
230
1.0
  2
SOLID
 70
1
 71
0
 91
1
 92
1
 93
1
 72
2
 10
829.067147554496
 20
95.98642245059055
 40
10
 50
0.0
 51
360.0
 73
1
 97
0
 75
1
 76
1
 98
0
  0
CIRCLE
  5
8F
330
17
100
AcDbEntity
  8
0
 62
1
100
AcDbCircle
 10
829.067147554496
 20
95.98642245059055
 30
0.0
 40
10.0
  0
HATCH
  5
90
330
17
100
AcDbEntity
  8
0
 62
98
100
AcDbHatch
 10
0.0
 20
0.0
 30
0.0
210
0.0
220
0.0
230
1.0
  2
SOLID
 70
1
 71
0
 91
1
 92
3
 72
0
 73
1
 93
6
 10
683.8210136366032
 20
2.4127389018469545
 10
780.567147554496
 20
1.9819582835000153
 10
829.067147554496
 20
85.98642245059055
 10
780.3210136366032
 20
169.5556418322436
 10
683.5748797187103
 20
169.98642245059054
 10
635.0748797187103
 20
85.9819582835
 97
0
 75
1
 76
1
 98
0
  0
LWPOLYLINE
  5
91
330
17
100
AcDbEntity
  8
0
 62
250
100
AcDbPolyline
 90
6
 70
1
 10
683.8210136366032
 20
2.4127389018469545
 10
780.567147554496
 20
1.9819582835000153
 10
829.067147554496
 20
85.98642245059055
 10
780.3210136366032
 20
169.5556418322436
 10
683.5748797187103
 20
169.98642245059054
 10
635.0748797187103
 20
85.9819582835
  0
MTEXT
  5
92
330
17
100
AcDbEntity
  8
0
 62
2
100
AcDbMText
 10
732.0710136366032
 20
85.98419036704529
 30
0.0
 40
10.0
 71
5
  1
IsEngine: True\P MB: 4\P wagon: 0
  0
HATCH
  5
93
330
17
100
AcDbEntity
  8
0
 62
98
100
AcDbHatch
 10
0.0
 20
0.0
 30
0.0
210
0.0
220
0.0
230
1.0
  2
SOLID
 70
1
 71
0
 91
1
 92
3
 72
0
 73
1
 93
6
 10
393.44863728670913
 20
1.4730299493188757
 10
489.82874580081756
 20
2.4082747347563846
 10
538.3287458008175
 20
86.41273890184695
 10
490.44863728670913
 20
169.4819582835
 10
393.7025033688163
 20
169.91273890184692
 10
345.2025033688163
 20
85.90827473475638
 97
0
 75
1
 76
1
 98
0
  0
LWPOLYLINE
  5
94
330
17
100
AcDbEntity
  8
0
 62
250
100
AcDbPolyline
 90
6
 70
1
 10
393.44863728670913
 20
1.4730299493188757
 10
489.82874580081756
 20
2.4082747347563846
 10
538.3287458008175
 20
86.41273890184695
 10
490.44863728670913
 20
169.4819582835
 10
393.7025033688163
 20
169.91273890184692
 10
345.2025033688163
 20
85.90827473475638
  0
MTEXT
  5
95
330
17
100
AcDbEntity
  8
0
 62
2
100
AcDbMText
 10
441.826628818781
 20
85.93283591767091
 30
0.0
 40
10.0
 71
5
  1
IsEngine: False\P MB: 6\P wagon: 0
  0
HATCH
  5
96
330
17
100
AcDbEntity
  8
0
 62
98
100
AcDbHatch
 10
0.0
 20
0.0
 30
0.0
210
0.0
220
0.0
230
1.0
  2
SOLID
 70
1
 71
0
 91
1
 92
3
 72
0
 73
1
 93
6
 10
538.3287458008175
 20
86.41273890184695
 10
635.0748797187103
 20
85.9819582835
 10
683.5748797187103
 20
169.98642245059054
 10
634.8287458008175
 20
253.5556418322436
 10
538.9486372867092
 20
253.48642245059054
 10
490.44863728670913
 20
169.4819582835
 97
0
 75
1
 76
1
 98
0
  0
LWPOLYLINE
  5
97
330
17
100
AcDbEntity
  8
0
 62
250
100
AcDbPolyline
 90
6
 70
1
 10
538.3287458008175
 20
86.41273890184695
 10
635.0748797187103
 20
85.9819582835
 10
683.5748797187103
 20
169.98642245059054
 10
634.8287458008175
 20
253.5556418322436
 10
538.9486372867092
 20
253.48642245059054
 10
490.44863728670913
 20
169.4819582835
  0
MTEXT
  5
98
330
17
100
AcDbEntity
  8
0
 62
2
100
AcDbMText
 10
586.8674209354123
 20
169.81752370037862
 30
0.0
 40
10.0
 71
5
  1
IsEngine: False\P MB: 6\P wagon: 0
  0
HATCH
  5
99
330
17
100
AcDbEntity
  8
0
 62
1
100
AcDbHatch
 10
0.0
 20
0.0
 30
0.0
210
0.0
220
0.0
230
1.0
  2
SOLID
 70
1
 71
0
 91
1
 92
1
 93
1
 72
2
 10
828.8210136366032
 20
263.56010599933416
 40
10
 50
0.0
 51
360.0
 73
1
 97
0
 75
1
 76
1
 98
0
  0
CIRCLE
  5
9A
330
17
100
AcDbEntity
  8
0
 62
1
100
AcDbCircle
 10
828.8210136366032
 20
263.56010599933416
 30
0.0
 40
10.0
  0
HATCH
  5
9B
330
17
100
AcDbEntity
  8
0
 62
98
100
AcDbHatch
 10
0.0
 20
0.0
 30
0.0
210
0.0
220
0.0
230
1.0
  2
SOLID
 70
1
 71
0
 91
1
 92
3
 72
0
 73
1
 93
6
 10
683.5748797187103
 20
169.98642245059054
 10
780.3210136366032
 20
169.5556418322436
 10
828.8210136366032
 20
253.56010599933418
 10
780.0748797187103
 20
337.1293253809872
 10
683.3287458008175
 20
337.56010599933416
 10
634.8287458008175
 20
253.5556418322436
 97
0
 75
1
 76
1
 98
0
  0
LWPOLYLINE
  5
9C
330
17
100
AcDbEntity
  8
0
 62
250
100
AcDbPolyline
 90
6
 70
1
 10
683.5748797187103
 20
169.98642245059054
 10
780.3210136366032
 20
169.5556418322436
 10
828.8210136366032
 20
253.56010599933418
 10
780.0748797187103
 20
337.1293253809872
 10
683.3287458008175
 20
337.56010599933416
 10
634.8287458008175
 20
253.5556418322436
  0
MTEXT
  5
9D
330
17
100
AcDbEntity
  8
0
 62
2
100
AcDbMText
 10
731.8248797187103
 20
253.55787391578886
 30
0.0
 40
10.0
 71
5
  1
IsEngine: True\P MB: 6\P wagon: 0
  0
HATCH
  5
9E
330
17
100
AcDbEntity
  8
0
 62
98
100
AcDbHatch
 10
0.0
 20
0.0
 30
0.0
210
0.0
220
0.0
230
1.0
  2
SOLID
 70
1
 71
0
 91
1
 92
3
 72
0
 73
1
 93
6
 10
829.067147554496
 20
85.98642245059055
 10
925.8132814723889
 20
85.55564183224361
 10
974.3132814723889
 20
169.56010599933418
 10
925.567147554496
 20
253.12932538098724
 10
828.8210136366032
 20
253.56010599933418
 10
780.3210136366032
 20
169.5556418322436
 97
0
 75
1
 76
1
 98
0
  0
LWPOLYLINE
  5
9F
330
17
100
AcDbEntity
  8
0
 62
250
100
AcDbPolyline
 90
6
 70
1
 10
829.067147554496
 20
85.98642245059055
 10
925.8132814723889
 20
85.55564183224361
 10
974.3132814723889
 20
169.56010599933418
 10
925.567147554496
 20
253.12932538098724
 10
828.8210136366032
 20
253.56010599933418
 10
780.3210136366032
 20
169.5556418322436
  0
MTEXT
  5
A0
330
17
100
AcDbEntity
  8
0
 62
2
100
AcDbMText
 10
877.317147554496
 20
169.5578739157889
 30
0.0
 40
10.0
 71
5
  1
IsEngine: False\P MB: 14\P wagon: 1
  0
HATCH
  5
A1
330
17
100
AcDbEntity
  8
0
 62
98
100
AcDbHatch
 10
0.0
 20
0.0
 30
0.0
210
0.0
220
0.0
230
1.0
  2
SOLID
 70
1
 71
0
 91
1
 92
3
 72
0
 73
1
 93
6
 10
974.3132814723889
 20
169.56010599933418
 10
1070.1933899864973
 20
169.62932538098727
 10
1118.6933899864973
 20
253.6337895480778
 10
1070.813281472389
 20
336.70300892973086
 10
974.067147554496
 20
337.1337895480778
 10
925.567147554496
 20
253.12932538098724
 97
0
 75
1
 76
1
 98
0
  0
LWPOLYLINE
  5
A2
330
17
100
AcDbEntity
  8
0
 62
250
100
AcDbPolyline
 90
6
 70
1
 10
974.3132814723889
 20
169.56010599933418
 10
1070.1933899864973
 20
169.62932538098727
 10
1118.6933899864973
 20
253.6337895480778
 10
1070.813281472389
 20
336.70300892973086
 10
974.067147554496
 20
337.1337895480778
 10
925.567147554496
 20
253.12932538098724
  0
MTEXT
  5
A3
330
17
100
AcDbEntity
  8
0
 62
2
100
AcDbMText
 10
1022.2746063377941
 20
253.2982241311992
 30
0.0
 40
10.0
 71
5
  1
IsEngine: False\P MB: 14\P wagon: 1
  0
HATCH
  5
A4
330
17
100
AcDbEntity
  8
0
 62
98
100
AcDbHatch
 10
0.0
 20
0.0
 30
0.0
210
0.0
220
0.0
230
1.0
  2
SOLID
 70
1
 71
0
 91
1
 92
3
 72
0
 73
1
 93
6
 10
1118.6933899864973
 20
253.6337895480778
 10
1215.4395239043902
 20
253.20300892973086
 10
1263.9395239043902
 20
337.2074730968214
 10
1215.6933899864973
 20
421.64271788225886
 10
1119.313281472389
 20
420.7074730968214
 10
1070.813281472389
 20
336.70300892973086
 97
0
 75
1
 76
1
 98
0
  0
LWPOLYLINE
  5
A5
330
17
100
AcDbEntity
  8
0
 62
250
100
AcDbPolyline
 90
6
 70
1
 10
1118.6933899864973
 20
253.6337895480778
 10
1215.4395239043902
 20
253.20300892973086
 10
1263.9395239043902
 20
337.2074730968214
 10
1215.6933899864973
 20
421.64271788225886
 10
1119.313281472389
 20
420.7074730968214
 10
1070.813281472389
 20
336.70300892973086
  0
MTEXT
  5
A6
330
17
100
AcDbEntity
  8
0
 62
2
100
AcDbMText
 10
1167.3153984544253
 20
337.1829119139068
 30
0.0
 40
10.0
 71
5
  1
IsEngine: False\P MB: 14\P wagon: 1
  0
HATCH
  5
A7
330
17
100
AcDbEntity
  8
0
 62
98
100
AcDbHatch
 10
0.0
 20
0.0
 30
0.0
210
0.0
220
0.0
230
1.0
  2
SOLID
 70
1
 71
0
 91
1
 92
3
 72
0
 73
1
 93
6
 10
1263.9395239043902
 20
337.2074730968214
 10
1361.185657822283
 20
337.64271788225886
 10
1409.185657822283
 20
420.7811566455651
 10
1360.9395239043902
 20
505.21640143100257
 10
1263.6933899864973
 20
504.7811566455651
 10
1215.6933899864973
 20
421.64271788225886
 97
0
 75
1
 76
1
 98
0
  0
LWPOLYLINE
  5
A8
330
17
100
AcDbEntity
  8
0
 62
250
100
AcDbPolyline
 90
6
 70
1
 10
1263.9395239043902
 20
337.2074730968214
 10
1361.185657822283
 20
337.64271788225886
 10
1409.185657822283
 20
420.7811566455651
 10
1360.9395239043902
 20
505.21640143100257
 10
1263.6933899864973
 20
504.7811566455651
 10
1215.6933899864973
 20
421.64271788225886
  0
MTEXT
  5
A9
330
17
100
AcDbEntity
  8
0
 62
2
100
AcDbMText
 10
1312.4395239043902
 20
421.211937263912
 30
0.0
 40
10.0
 71
5
  1
IsEngine: False\P MB: 14\P wagon: 1
  0
HATCH
  5
AA
330
17
100
AcDbEntity
  8
0
 62
1
100
AcDbHatch
 10
0.0
 20
0.0
 30
0.0
210
0.0
220
0.0
230
1.0
  2
SOLID
 70
1
 71
0
 91
1
 92
1
 93
1
 72
2
 10
1554.9317917401759
 20
515.220865598093
 40
10
 50
0.0
 51
360.0
 73
1
 97
0
 75
1
 76
1
 98
0
  0
CIRCLE
  5
AB
330
17
100
AcDbEntity
  8
0
 62
1
100
AcDbCircle
 10
1554.9317917401759
 20
515.220865598093
 30
0.0
 40
10.0
  0
HATCH
  5
AC
330
17
100
AcDbEntity
  8
0
 62
98
100
AcDbHatch
 10
0.0
 20
0.0
 30
0.0
210
0.0
220
0.0
230
1.0
  2
SOLID
 70
1
 71
0
 91
1
 92
3
 72
0
 73
1
 93
6
 10
1409.185657822283
 20
420.7811566455651
 10
1506.4317917401759
 20
421.21640143100257
 10
1554.9317917401759
 20
505.2208655980931
 10
1506.185657822283
 20
588.7900849797461
 10
1409.4395239043902
 20
589.220865598093
 10
1360.9395239043902
 20
505.21640143100257
 97
0
 75
1
 76
1
 98
0
  0
LWPOLYLINE
  5
AD
330
17
100
AcDbEntity
  8
0
 62
250
100
AcDbPolyline
 90
6
 70
1
 10
1409.185657822283
 20
420.7811566455651
 10
1506.4317917401759
 20
421.21640143100257
 10
1554.9317917401759
 20
505.2208655980931
 10
1506.185657822283
 20
588.7900849797461
 10
1409.4395239043902
 20
589.220865598093
 10
1360.9395239043902
 20
505.21640143100257
  0
MTEXT
  5
AE
330
17
100
AcDbEntity
  8
0
 62
2
100
AcDbMText
 10
1457.8523244889495
 20
505.07429594725045
 30
0.0
 40
10.0
 71
5
  1
IsEngine: True\P MB: 14\P wagon: 0
  0
HATCH
  5
AF
330
17
100
AcDbEntity
  8
0
 62
98
100
AcDbHatch
 10
0.0
 20
0.0
 30
0.0
210
0.0
220
0.0
230
1.0
  2
SOLID
 70
1
 71
0
 91
1
 92
3
 72
0
 73
1
 93
6
 10
1554.9317917401759
 20
505.2208655980931
 10
1651.6779256580687
 20
504.79008497974615
 10
1700.1779256580687
 20
588.7945491468369
 10
1651.4317917401759
 20
672.3637685284899
 10
1554.685657822283
 20
672.7945491468367
 10
1506.185657822283
 20
588.7900849797461
 97
0
 75
1
 76
1
 98
0
  0
LWPOLYLINE
  5
B0
330
17
100
AcDbEntity
  8
0
 62
250
100
AcDbPolyline
 90
6
 70
1
 10
1554.9317917401759
 20
505.2208655980931
 10
1651.6779256580687
 20
504.79008497974615
 10
1700.1779256580687
 20
588.7945491468369
 10
1651.4317917401759
 20
672.3637685284899
 10
1554.685657822283
 20
672.7945491468367
 10
1506.185657822283
 20
588.7900849797461
  0
MTEXT
  5
B1
330
17
100
AcDbEntity
  8
0
 62
2
100
AcDbMText
 10
1603.1817917401759
 20
588.7923170632915
 30
0.0
 40
10.0
 71
5
  1
IsEngine: False\P MB: 14\P wagon: 0
  0
HATCH
  5
B2
330
17
100
AcDbEntity
  8
0
 62
98
100
AcDbHatch
 10
0.0
 20
0.0
 30
0.0
210
0.0
220
0.0
230
1.0
  2
SOLID
 70
1
 71
0
 91
1
 92
3
 72
0
 73
1
 93
4
 10
1796.9240595759616
 20
588.3637685284899
 10
1699.9317917401759
 20
756.3682326955803
 10
1651.4317917401759
 20
672.3637685284899
 10
1700.1779256580687
 20
588.7945491468369
 97
0
 75
1
 76
1
 98
0
  0
LWPOLYLINE
  5
B3
330
17
100
AcDbEntity
  8
0
 62
250
100
AcDbPolyline
 90
4
 70
1
 10
1796.9240595759616
 20
588.3637685284899
 10
1699.9317917401759
 20
756.3682326955803
 10
1651.4317917401759
 20
672.3637685284899
 10
1700.1779256580687
 20
588.7945491468369
  0
MTEXT
  5
B4
330
17
100
AcDbEntity
  8
0
 62
2
100
AcDbMText
 10
1712.1163921785956
 20
651.4725797248493
 30
0.0
 40
10.0
 71
5
  1
IsEngine: False\P MB: 14\P wagon: 0
  0
HATCH
  5
B5
330
17
100
AcDbEntity
  8
0
 62
98
100
AcDbHatch
 10
0.0
 20
0.0
 30
0.0
210
0.0
220
0.0
230
1.0
  2
SOLID
 70
1
 71
0
 91
1
 92
3
 72
0
 73
1
 93
6
 10
828.8210136366032
 20
253.56010599933418
 10
925.567147554496
 20
253.12932538098724
 10
974.067147554496
 20
337.1337895480778
 10
925.3210136366032
 20
420.70300892973086
 10
828.5748797187103
 20
421.13378954807774
 10
780.0748797187103
 20
337.1293253809872
 97
0
 75
1
 76
1
 98
0
  0
LWPOLYLINE
  5
B6
330
17
100
AcDbEntity
  8
0
 62
250
100
AcDbPolyline
 90
6
 70
1
 10
828.8210136366032
 20
253.56010599933418
 10
925.567147554496
 20
253.12932538098724
 10
974.067147554496
 20
337.1337895480778
 10
925.3210136366032
 20
420.70300892973086
 10
828.5748797187103
 20
421.13378954807774
 10
780.0748797187103
 20
337.1293253809872
  0
MTEXT
  5
B7
330
17
100
AcDbEntity
  8
0
 62
2
100
AcDbMText
 10
877.0710136366032
 20
337.1315574645325
 30
0.0
 40
10.0
 71
5
  1
IsEngine: False\P MB: 16\P wagon: 1
  0
HATCH
  5
B8
330
17
100
AcDbEntity
  8
0
 62
98
100
AcDbHatch
 10
0.0
 20
0.0
 30
0.0
210
0.0
220
0.0
230
1.0
  2
SOLID
 70
1
 71
0
 91
1
 92
3
 72
0
 73
1
 93
6
 10
974.067147554496
 20
337.1337895480778
 10
1070.813281472389
 20
336.70300892973086
 10
1119.313281472389
 20
420.7074730968214
 10
1071.0671475544962
 20
505.14271788225886
 10
973.8210136366032
 20
504.7074730968214
 10
925.3210136366032
 20
420.70300892973086
 97
0
 75
1
 76
1
 98
0
  0
LWPOLYLINE
  5
B9
330
17
100
AcDbEntity
  8
0
 62
250
100
AcDbPolyline
 90
6
 70
1
 10
974.067147554496
 20
337.1337895480778
 10
1070.813281472389
 20
336.70300892973086
 10
1119.313281472389
 20
420.7074730968214
 10
1071.0671475544962
 20
505.14271788225886
 10
973.8210136366032
 20
504.7074730968214
 10
925.3210136366032
 20
420.70300892973086
  0
MTEXT
  5
BA
330
17
100
AcDbEntity
  8
0
 62
2
100
AcDbMText
 10
1022.4004808878294
 20
420.8495785805735
 30
0.0
 40
10.0
 71
5
  1
IsEngine: False\P MB: 16\P wagon: 1
  0
HATCH
  5
BB
330
17
100
AcDbEntity
  8
0
 62
98
100
AcDbHatch
 10
0.0
 20
0.0
 30
0.0
210
0.0
220
0.0
230
1.0
  2
SOLID
 70
1
 71
0
 91
1
 92
3
 72
0
 73
1
 93
6
 10
1119.313281472389
 20
420.7074730968214
 10
1215.6933899864973
 20
421.64271788225886
 10
1263.6933899864973
 20
504.7811566455651
 10
1216.3132814723888
 20
588.7164014310025
 10
1119.067147554496
 20
588.281156645565
 10
1071.0671475544962
 20
505.14271788225886
 97
0
 75
1
 76
1
 98
0
  0
LWPOLYLINE
  5
BC
330
17
100
AcDbEntity
  8
0
 62
250
100
AcDbPolyline
 90
6
 70
1
 10
1119.313281472389
 20
420.7074730968214
 10
1215.6933899864973
 20
421.64271788225886
 10
1263.6933899864973
 20
504.7811566455651
 10
1216.3132814723888
 20
588.7164014310025
 10
1119.067147554496
 20
588.281156645565
 10
1071.0671475544962
 20
505.14271788225886
  0
MTEXT
  5
BD
330
17
100
AcDbEntity
  8
0
 62
2
100
AcDbMText
 10
1167.5246063377942
 20
504.87860393057866
 30
0.0
 40
10.0
 71
5
  1
IsEngine: False\P MB: 16\P wagon: 1
  0
HATCH
  5
BE
330
17
100
AcDbEntity
  8
0
 62
1
100
AcDbHatch
 10
0.0
 20
0.0
 30
0.0
210
0.0
220
0.0
230
1.0
  2
SOLID
 70
1
 71
0
 91
1
 92
1
 93
1
 72
2
 10
1409.4395239043902
 20
599.220865598093
 40
10
 50
0.0
 51
360.0
 73
1
 97
0
 75
1
 76
1
 98
0
  0
CIRCLE
  5
BF
330
17
100
AcDbEntity
  8
0
 62
1
100
AcDbCircle
 10
1409.4395239043902
 20
599.220865598093
 30
0.0
 40
10.0
  0
HATCH
  5
C0
330
17
100
AcDbEntity
  8
0
 62
98
100
AcDbHatch
 10
0.0
 20
0.0
 30
0.0
210
0.0
220
0.0
230
1.0
  2
SOLID
 70
1
 71
0
 91
1
 92
3
 72
0
 73
1
 93
6
 10
1263.6933899864973
 20
504.7811566455651
 10
1360.9395239043902
 20
505.21640143100257
 10
1409.4395239043902
 20
589.220865598093
 10
1360.6933899864973
 20
672.7900849797461
 10
1264.8132814723888
 20
672.720865598093
 10
1216.3132814723888
 20
588.7164014310025
 97
0
 75
1
 76
1
 98
0
  0
LWPOLYLINE
  5
C1
330
17
100
AcDbEntity
  8
0
 62
250
100
AcDbPolyline
 90
6
 70
1
 10
1263.6933899864973
 20
504.7811566455651
 10
1360.9395239043902
 20
505.21640143100257
 10
1409.4395239043902
 20
589.220865598093
 10
1360.6933899864973
 20
672.7900849797461
 10
1264.8132814723888
 20
672.720865598093
 10
1216.3132814723888
 20
588.7164014310025
  0
MTEXT
  5
C2
330
17
100
AcDbEntity
  8
0
 62
2
100
AcDbMText
 10
1312.6487317877588
 20
588.9076292805837
 30
0.0
 40
10.0
 71
5
  1
IsEngine: True\P MB: 16\P wagon: 0
  0
HATCH
  5
C3
330
17
100
AcDbEntity
  8
0
 62
98
100
AcDbHatch
 10
0.0
 20
0.0
 30
0.0
210
0.0
220
0.0
230
1.0
  2
SOLID
 70
1
 71
0
 91
1
 92
3
 72
0
 73
1
 93
6
 10
1409.4395239043902
 20
589.220865598093
 10
1506.185657822283
 20
588.7900849797461
 10
1554.685657822283
 20
672.7945491468367
 10
1505.9395239043902
 20
756.3637685284898
 10
1409.1933899864973
 20
756.7945491468367
 10
1360.6933899864973
 20
672.7900849797461
 97
0
 75
1
 76
1
 98
0
  0
LWPOLYLINE
  5
C4
330
17
100
AcDbEntity
  8
0
 62
250
100
AcDbPolyline
 90
6
 70
1
 10
1409.4395239043902
 20
589.220865598093
 10
1506.185657822283
 20
588.7900849797461
 10
1554.685657822283
 20
672.7945491468367
 10
1505.9395239043902
 20
756.3637685284898
 10
1409.1933899864973
 20
756.7945491468367
 10
1360.6933899864973
 20
672.7900849797461
  0
MTEXT
  5
C5
330
17
100
AcDbEntity
  8
0
 62
2
100
AcDbMText
 10
1457.6895239043904
 20
672.7923170632914
 30
0.0
 40
10.0
 71
5
  1
IsEngine: False\P MB: 16\P wagon: 0
  0
HATCH
  5
C6
330
17
100
AcDbEntity
  8
0
 62
98
100
AcDbHatch
 10
0.0
 20
0.0
 30
0.0
210
0.0
220
0.0
230
1.0
  2
SOLID
 70
1
 71
0
 91
1
 92
3
 72
0
 73
1
 93
6
 10
1554.685657822283
 20
672.7945491468367
 10
1651.4317917401759
 20
672.3637685284899
 10
1699.9317917401759
 20
756.3682326955803
 10
1651.185657822283
 20
839.9374520772333
 10
1554.4395239043902
 20
840.3682326955802
 10
1505.9395239043902
 20
756.3637685284898
 97
0
 75
1
 76
1
 98
0
  0
LWPOLYLINE
  5
C7
330
17
100
AcDbEntity
  8
0
 62
250
100
AcDbPolyline
 90
6
 70
1
 10
1554.685657822283
 20
672.7945491468367
 10
1651.4317917401759
 20
672.3637685284899
 10
1699.9317917401759
 20
756.3682326955803
 10
1651.185657822283
 20
839.9374520772333
 10
1554.4395239043902
 20
840.3682326955802
 10
1505.9395239043902
 20
756.3637685284898
  0
MTEXT
  5
C8
330
17
100
AcDbEntity
  8
0
 62
2
100
AcDbMText
 10
1602.935657822283
 20
756.366000612035
 30
0.0
 40
10.0
 71
5
  1
IsEngine: False\P MB: 16\P wagon: 0
  0
HATCH
  5
C9
330
17
100
AcDbEntity
  8
0
 62
98
100
AcDbHatch
 10
0.0
 20
0.0
 30
0.0
210
0.0
220
0.0
230
1.0
  2
SOLID
 70
1
 71
0
 91
1
 92
3
 72
0
 73
1
 93
6
 10
1409.9240595759616
 20
-81.93989400066577
 10
1505.80416809007
 20
-81.87067461901272
 10
1554.30416809007
 20
2.133789548077818
 10
1506.4240595759616
 20
85.20300892973087
 10
1409.6779256580687
 20
85.63378954807781
 10
1361.1779256580687
 20
1.6293253809872765
 97
0
 75
1
 76
1
 98
0
  0
LWPOLYLINE
  5
CA
330
17
100
AcDbEntity
  8
0
 62
250
100
AcDbPolyline
 90
6
 70
1
 10
1409.9240595759616
 20
-81.93989400066577
 10
1505.80416809007
 20
-81.87067461901272
 10
1554.30416809007
 20
2.133789548077818
 10
1506.4240595759616
 20
85.20300892973087
 10
1409.6779256580687
 20
85.63378954807781
 10
1361.1779256580687
 20
1.6293253809872765
  0
MTEXT
  5
CB
330
17
100
AcDbEntity
  8
0
 62
2
100
AcDbMText
 10
1457.8853844413668
 20
1.7982241311992146
 30
0.0
 40
10.0
 71
5
  1
IsEngine: False\P MB: 22\P wagon: 1
  0
HATCH
  5
CC
330
17
100
AcDbEntity
  8
0
 62
98
100
AcDbHatch
 10
0.0
 20
0.0
 30
0.0
210
0.0
220
0.0
230
1.0
  2
SOLID
 70
1
 71
0
 91
1
 92
3
 72
0
 73
1
 93
6
 10
1554.30416809007
 20
2.133789548077818
 10
1651.050302007963
 20
1.7030089297308788
 10
1699.550302007963
 20
85.70747309682142
 10
1651.30416809007
 20
170.1427178822589
 10
1554.9240595759616
 20
169.2074730968214
 10
1506.4240595759616
 20
85.20300892973087
 97
0
 75
1
 76
1
 98
0
  0
LWPOLYLINE
  5
CD
330
17
100
AcDbEntity
  8
0
 62
250
100
AcDbPolyline
 90
6
 70
1
 10
1554.30416809007
 20
2.133789548077818
 10
1651.050302007963
 20
1.7030089297308788
 10
1699.550302007963
 20
85.70747309682142
 10
1651.30416809007
 20
170.1427178822589
 10
1554.9240595759616
 20
169.2074730968214
 10
1506.4240595759616
 20
85.20300892973087
  0
MTEXT
  5
CE
330
17
100
AcDbEntity
  8
0
 62
2
100
AcDbMText
 10
1602.9261765579984
 20
85.68291191390688
 30
0.0
 40
10.0
 71
5
  1
IsEngine: False\P MB: 22\P wagon: 1
  0
HATCH
  5
CF
330
17
100
AcDbEntity
  8
0
 62
98
100
AcDbHatch
 10
0.0
 20
0.0
 30
0.0
210
0.0
220
0.0
230
1.0
  2
SOLID
 70
1
 71
0
 91
1
 92
3
 72
0
 73
1
 93
5
 10
1796.5425698437487
 20
-82.29699107026912
 10
1796.7964359258558
 20
86.14271788225889
 10
1699.550302007963
 20
85.70747309682142
 10
1651.050302007963
 20
1.7030089297308788
 10
1699.7964359258558
 20
-81.86621045192217
 97
0
 75
1
 76
1
 98
0
  0
LWPOLYLINE
  5
D0
330
17
100
AcDbEntity
  8
0
 62
250
100
AcDbPolyline
 90
5
 70
1
 10
1796.5425698437487
 20
-82.29699107026912
 10
1796.7964359258558
 20
86.14271788225889
 10
1699.550302007963
 20
85.70747309682142
 10
1651.050302007963
 20
1.7030089297308788
 10
1699.7964359258558
 20
-81.86621045192217
  0
MTEXT
  5
D1
330
17
100
AcDbEntity
  8
0
 62
2
100
AcDbMText
 10
1728.7472091422774
 20
1.8779996773239804
 30
0.0
 40
10.0
 71
5
  1
IsEngine: False\P MB: 22\P wagon: 1
  0
HATCH
  5
D2
330
17
100
AcDbEntity
  8
0
 62
1
100
AcDbHatch
 10
0.0
 20
0.0
 30
0.0
210
0.0
220
0.0
230
1.0
  2
SOLID
 70
1
 71
0
 91
1
 92
1
 93
1
 72
2
 10
1844.7964359258556
 20
179.28115664556512
 40
10
 50
0.0
 51
360.0
 73
1
 97
0
 75
1
 76
1
 98
0
  0
CIRCLE
  5
D3
330
17
100
AcDbEntity
  8
0
 62
1
100
AcDbCircle
 10
1844.7964359258556
 20
179.28115664556512
 30
0.0
 40
10.0
  0
HATCH
  5
D4
330
17
100
AcDbEntity
  8
0
 62
98
100
AcDbHatch
 10
0.0
 20
0.0
 30
0.0
210
0.0
220
0.0
230
1.0
  2
SOLID
 70
1
 71
0
 91
1
 92
3
 72
0
 73
1
 93
6
 10
1699.550302007963
 20
85.70747309682142
 10
1796.7964359258558
 20
86.14271788225889
 10
1844.7964359258556
 20
169.28115664556512
 10
1796.5503020079627
 20
253.7164014310026
 10
1699.3041680900699
 20
253.28115664556512
 10
1651.30416809007
 20
170.1427178822589
 97
0
 75
1
 76
1
 98
0
  0
LWPOLYLINE
  5
D5
330
17
100
AcDbEntity
  8
0
 62
250
100
AcDbPolyline
 90
6
 70
1
 10
1699.550302007963
 20
85.70747309682142
 10
1796.7964359258558
 20
86.14271788225889
 10
1844.7964359258556
 20
169.28115664556512
 10
1796.5503020079627
 20
253.7164014310026
 10
1699.3041680900699
 20
253.28115664556512
 10
1651.30416809007
 20
170.1427178822589
  0
MTEXT
  5
D6
330
17
100
AcDbEntity
  8
0
 62
2
100
AcDbMText
 10
1748.050302007963
 20
169.711937263912
 30
0.0
 40
10.0
 71
5
  1
IsEngine: True\P MB: 22\P wagon: 0
  0
HATCH
  5
D7
330
17
100
AcDbEntity
  8
0
 62
98
100
AcDbHatch
 10
0.0
 20
0.0
 30
0.0
210
0.0
220
0.0
230
1.0
  2
SOLID
 70
1
 71
0
 91
1
 92
3
 72
0
 73
1
 93
5
 10
1844.7964359258556
 20
169.28115664556512
 10
1893.6695028848021
 20
169.93179174017607
 10
1893.4233689669093
 20
337.5054752889196
 10
1845.0503020079627
 20
337.7208655980931
 10
1796.5503020079627
 20
253.7164014310026
 97
0
 75
1
 76
1
 98
0
  0
LWPOLYLINE
  5
D8
330
17
100
AcDbEntity
  8
0
 62
250
100
AcDbPolyline
 90
5
 70
1
 10
1844.7964359258556
 20
169.28115664556512
 10
1893.6695028848021
 20
169.93179174017607
 10
1893.4233689669093
 20
337.5054752889196
 10
1845.0503020079627
 20
337.7208655980931
 10
1796.5503020079627
 20
253.7164014310026
  0
MTEXT
  5
D9
330
17
100
AcDbEntity
  8
0
 62
2
100
AcDbMText
 10
1854.6979823586985
 20
253.63113814075132
 30
0.0
 40
10.0
 71
5
  1
IsEngine: False\P MB: 22\P wagon: 0
  0
HATCH
  5
DA
330
17
100
AcDbEntity
  8
0
 62
98
100
AcDbHatch
 10
0.0
 20
0.0
 30
0.0
210
0.0
220
0.0
230
1.0
  2
SOLID
 70
1
 71
0
 91
1
 92
3
 72
0
 73
1
 93
6
 10
1119.185657822283
 20
-81.51357754940943
 10
1215.9317917401759
 20
-81.94435816775638
 10
1264.4317917401759
 20
2.060105999334216
 10
1215.685657822283
 20
85.62932538098727
 10
1118.9395239043902
 20
86.06010599933421
 10
1070.4395239043902
 20
2.0556418322436176
 97
0
 75
1
 76
1
 98
0
  0
LWPOLYLINE
  5
DB
330
17
100
AcDbEntity
  8
0
 62
250
100
AcDbPolyline
 90
6
 70
1
 10
1119.185657822283
 20
-81.51357754940943
 10
1215.9317917401759
 20
-81.94435816775638
 10
1264.4317917401759
 20
2.060105999334216
 10
1215.685657822283
 20
85.62932538098727
 10
1118.9395239043902
 20
86.06010599933421
 10
1070.4395239043902
 20
2.0556418322436176
  0
MTEXT
  5
DC
330
17
100
AcDbEntity
  8
0
 62
2
100
AcDbMText
 10
1167.435657822283
 20
2.057873915788917
 30
0.0
 40
10.0
 71
5
  1
IsEngine: False\P MB: 24\P wagon: 1
  0
HATCH
  5
DD
330
17
100
AcDbEntity
  8
0
 62
98
100
AcDbHatch
 10
0.0
 20
0.0
 30
0.0
210
0.0
220
0.0
230
1.0
  2
SOLID
 70
1
 71
0
 91
1
 92
3
 72
0
 73
1
 93
6
 10
1264.4317917401759
 20
2.060105999334216
 10
1361.1779256580687
 20
1.6293253809872765
 10
1409.6779256580687
 20
85.63378954807781
 10
1360.9317917401759
 20
169.20300892973086
 10
1264.185657822283
 20
169.6337895480778
 10
1215.685657822283
 20
85.62932538098727
 97
0
 75
1
 76
1
 98
0
  0
LWPOLYLINE
  5
DE
330
17
100
AcDbEntity
  8
0
 62
250
100
AcDbPolyline
 90
6
 70
1
 10
1264.4317917401759
 20
2.060105999334216
 10
1361.1779256580687
 20
1.6293253809872765
 10
1409.6779256580687
 20
85.63378954807781
 10
1360.9317917401759
 20
169.20300892973086
 10
1264.185657822283
 20
169.6337895480778
 10
1215.685657822283
 20
85.62932538098727
  0
MTEXT
  5
DF
330
17
100
AcDbEntity
  8
0
 62
2
100
AcDbMText
 10
1312.6817917401759
 20
85.63155746453253
 30
0.0
 40
10.0
 71
5
  1
IsEngine: False\P MB: 24\P wagon: 1
  0
HATCH
  5
E0
330
17
100
AcDbEntity
  8
0
 62
1
100
AcDbHatch
 10
0.0
 20
0.0
 30
0.0
210
0.0
220
0.0
230
1.0
  2
SOLID
 70
1
 71
0
 91
1
 92
1
 93
1
 72
2
 10
1554.9240595759616
 20
179.2074730968214
 40
10
 50
0.0
 51
360.0
 73
1
 97
0
 75
1
 76
1
 98
0
  0
CIRCLE
  5
E1
330
17
100
AcDbEntity
  8
0
 62
1
100
AcDbCircle
 10
1554.9240595759616
 20
179.2074730968214
 30
0.0
 40
10.0
  0
HATCH
  5
E2
330
17
100
AcDbEntity
  8
0
 62
98
100
AcDbHatch
 10
0.0
 20
0.0
 30
0.0
210
0.0
220
0.0
230
1.0
  2
SOLID
 70
1
 71
0
 91
1
 92
3
 72
0
 73
1
 93
6
 10
1409.6779256580687
 20
85.63378954807781
 10
1506.4240595759616
 20
85.20300892973087
 10
1554.9240595759616
 20
169.2074730968214
 10
1506.6779256580687
 20
253.64271788225886
 10
1409.4317917401759
 20
253.2074730968214
 10
1360.9317917401759
 20
169.20300892973086
 97
0
 75
1
 76
1
 98
0
  0
LWPOLYLINE
  5
E3
330
17
100
AcDbEntity
  8
0
 62
250
100
AcDbPolyline
 90
6
 70
1
 10
1409.6779256580687
 20
85.63378954807781
 10
1506.4240595759616
 20
85.20300892973087
 10
1554.9240595759616
 20
169.2074730968214
 10
1506.6779256580687
 20
253.64271788225886
 10
1409.4317917401759
 20
253.2074730968214
 10
1360.9317917401759
 20
169.20300892973086
  0
MTEXT
  5
E4
330
17
100
AcDbEntity
  8
0
 62
2
100
AcDbMText
 10
1458.0112589914022
 20
169.34957858057354
 30
0.0
 40
10.0
 71
5
  1
IsEngine: True\P MB: 24\P wagon: 0
  0
HATCH
  5
E5
330
17
100
AcDbEntity
  8
0
 62
98
100
AcDbHatch
 10
0.0
 20
0.0
 30
0.0
210
0.0
220
0.0
230
1.0
  2
SOLID
 70
1
 71
0
 91
1
 92
3
 72
0
 73
1
 93
6
 10
1554.9240595759616
 20
169.2074730968214
 10
1651.30416809007
 20
170.1427178822589
 10
1699.3041680900699
 20
253.28115664556512
 10
1651.9240595759616
 20
337.21640143100257
 10
1554.6779256580687
 20
336.7811566455651
 10
1506.6779256580687
 20
253.64271788225886
 97
0
 75
1
 76
1
 98
0
  0
LWPOLYLINE
  5
E6
330
17
100
AcDbEntity
  8
0
 62
250
100
AcDbPolyline
 90
6
 70
1
 10
1554.9240595759616
 20
169.2074730968214
 10
1651.30416809007
 20
170.1427178822589
 10
1699.3041680900699
 20
253.28115664556512
 10
1651.9240595759616
 20
337.21640143100257
 10
1554.6779256580687
 20
336.7811566455651
 10
1506.6779256580687
 20
253.64271788225886
  0
MTEXT
  5
E7
330
17
100
AcDbEntity
  8
0
 62
2
100
AcDbMText
 10
1603.1353844413668
 20
253.37860393057863
 30
0.0
 40
10.0
 71
5
  1
IsEngine: False\P MB: 24\P wagon: 0
  0
HATCH
  5
E8
330
17
100
AcDbEntity
  8
0
 62
98
100
AcDbHatch
 10
0.0
 20
0.0
 30
0.0
210
0.0
220
0.0
230
1.0
  2
SOLID
 70
1
 71
0
 91
1
 92
3
 72
0
 73
1
 93
6
 10
1699.3041680900699
 20
253.28115664556512
 10
1796.5503020079627
 20
253.7164014310026
 10
1845.0503020079627
 20
337.7208655980931
 10
1796.3041680900699
 20
421.29008497974615
 10
1700.4240595759616
 20
421.2208655980931
 10
1651.9240595759616
 20
337.21640143100257
 97
0
 75
1
 76
1
 98
0
  0
LWPOLYLINE
  5
E9
330
17
100
AcDbEntity
  8
0
 62
250
100
AcDbPolyline
 90
6
 70
1
 10
1699.3041680900699
 20
253.28115664556512
 10
1796.5503020079627
 20
253.7164014310026
 10
1845.0503020079627
 20
337.7208655980931
 10
1796.3041680900699
 20
421.29008497974615
 10
1700.4240595759616
 20
421.2208655980931
 10
1651.9240595759616
 20
337.21640143100257
  0
MTEXT
  5
EA
330
17
100
AcDbEntity
  8
0
 62
2
100
AcDbMText
 10
1748.2595098913314
 20
337.40762928058376
 30
0.0
 40
10.0
 71
5
  1
IsEngine: False\P MB: 24\P wagon: 0
  0
HATCH
  5
EB
330
17
100
AcDbEntity
  8
0
 62
98
100
AcDbHatch
 10
0.0
 20
0.0
 30
0.0
210
0.0
220
0.0
230
1.0
  2
SOLID
 70
1
 71
0
 91
1
 92
3
 72
0
 73
1
 93
6
 10
829.3132814723889
 20
-81.58726109815304
 10
925.1933899864973
 20
-81.51804171649998
 10
973.6933899864973
 20
2.4864224505905566
 10
925.8132814723889
 20
85.55564183224361
 10
829.067147554496
 20
85.98642245059055
 10
780.567147554496
 20
1.9819582835000153
 97
0
 75
1
 76
1
 98
0
  0
LWPOLYLINE
  5
EC
330
17
100
AcDbEntity
  8
0
 62
250
100
AcDbPolyline
 90
6
 70
1
 10
829.3132814723889
 20
-81.58726109815304
 10
925.1933899864973
 20
-81.51804171649998
 10
973.6933899864973
 20
2.4864224505905566
 10
925.8132814723889
 20
85.55564183224361
 10
829.067147554496
 20
85.98642245059055
 10
780.567147554496
 20
1.9819582835000153
  0
MTEXT
  5
ED
330
17
100
AcDbEntity
  8
0
 62
2
100
AcDbMText
 10
877.2746063377941
 20
2.150857033711953
 30
0.0
 40
10.0
 71
5
  1
IsEngine: False\P MB: 29\P wagon: 1
  0
HATCH
  5
EE
330
17
100
AcDbEntity
  8
0
 62
98
100
AcDbHatch
 10
0.0
 20
0.0
 30
0.0
210
0.0
220
0.0
230
1.0
  2
SOLID
 70
1
 71
0
 91
1
 92
3
 72
0
 73
1
 93
6
 10
973.6933899864973
 20
2.4864224505905566
 10
1070.4395239043902
 20
2.0556418322436176
 10
1118.9395239043902
 20
86.06010599933421
 10
1070.1933899864973
 20
169.62932538098727
 10
974.3132814723889
 20
169.56010599933418
 10
925.8132814723889
 20
85.55564183224361
 97
0
 75
1
 76
1
 98
0
  0
LWPOLYLINE
  5
EF
330
17
100
AcDbEntity
  8
0
 62
250
100
AcDbPolyline
 90
6
 70
1
 10
973.6933899864973
 20
2.4864224505905566
 10
1070.4395239043902
 20
2.0556418322436176
 10
1118.9395239043902
 20
86.06010599933421
 10
1070.1933899864973
 20
169.62932538098727
 10
974.3132814723889
 20
169.56010599933418
 10
925.8132814723889
 20
85.55564183224361
  0
MTEXT
  5
F0
330
17
100
AcDbEntity
  8
0
 62
2
100
AcDbMText
 10
1022.2320651210921
 20
85.89120724912225
 30
0.0
 40
10.0
 71
5
  1
IsEngine: False\P MB: 29\P wagon: 1
  0
HATCH
  5
F1
330
17
100
AcDbEntity
  8
0
 62
98
100
AcDbHatch
 10
0.0
 20
0.0
 30
0.0
210
0.0
220
0.0
230
1.0
  2
SOLID
 70
1
 71
0
 91
1
 92
3
 72
0
 73
1
 93
6
 10
1118.9395239043902
 20
86.06010599933421
 10
1215.685657822283
 20
85.62932538098727
 10
1264.185657822283
 20
169.6337895480778
 10
1215.4395239043902
 20
253.20300892973086
 10
1118.6933899864973
 20
253.6337895480778
 10
1070.1933899864973
 20
169.62932538098727
 97
0
 75
1
 76
1
 98
0
  0
LWPOLYLINE
  5
F2
330
17
100
AcDbEntity
  8
0
 62
250
100
AcDbPolyline
 90
6
 70
1
 10
1118.9395239043902
 20
86.06010599933421
 10
1215.685657822283
 20
85.62932538098727
 10
1264.185657822283
 20
169.6337895480778
 10
1215.4395239043902
 20
253.20300892973086
 10
1118.6933899864973
 20
253.6337895480778
 10
1070.1933899864973
 20
169.62932538098727
  0
MTEXT
  5
F3
330
17
100
AcDbEntity
  8
0
 62
2
100
AcDbMText
 10
1167.1895239043902
 20
169.63155746453253
 30
0.0
 40
10.0
 71
5
  1
IsEngine: False\P MB: 29\P wagon: 1
  0
HATCH
  5
F4
330
17
100
AcDbEntity
  8
0
 62
98
100
AcDbHatch
 10
0.0
 20
0.0
 30
0.0
210
0.0
220
0.0
230
1.0
  2
SOLID
 70
1
 71
0
 91
1
 92
3
 72
0
 73
1
 93
6
 10
1264.185657822283
 20
169.6337895480778
 10
1360.9317917401759
 20
169.20300892973086
 10
1409.4317917401759
 20
253.2074730968214
 10
1361.185657822283
 20
337.64271788225886
 10
1263.9395239043902
 20
337.2074730968214
 10
1215.4395239043902
 20
253.20300892973086
 97
0
 75
1
 76
1
 98
0
  0
LWPOLYLINE
  5
F5
330
17
100
AcDbEntity
  8
0
 62
250
100
AcDbPolyline
 90
6
 70
1
 10
1264.185657822283
 20
169.6337895480778
 10
1360.9317917401759
 20
169.20300892973086
 10
1409.4317917401759
 20
253.2074730968214
 10
1361.185657822283
 20
337.64271788225886
 10
1263.9395239043902
 20
337.2074730968214
 10
1215.4395239043902
 20
253.20300892973086
  0
MTEXT
  5
F6
330
17
100
AcDbEntity
  8
0
 62
2
100
AcDbMText
 10
1312.5189911556163
 20
253.3495785805735
 30
0.0
 40
10.0
 71
5
  1
IsEngine: False\P MB: 29\P wagon: 1
  0
HATCH
  5
F7
330
17
100
AcDbEntity
  8
0
 62
1
100
AcDbHatch
 10
0.0
 20
0.0
 30
0.0
210
0.0
220
0.0
230
1.0
  2
SOLID
 70
1
 71
0
 91
1
 92
1
 93
1
 72
2
 10
1554.6779256580687
 20
346.7811566455651
 40
10
 50
0.0
 51
360.0
 73
1
 97
0
 75
1
 76
1
 98
0
  0
CIRCLE
  5
F8
330
17
100
AcDbEntity
  8
0
 62
1
100
AcDbCircle
 10
1554.6779256580687
 20
346.7811566455651
 30
0.0
 40
10.0
  0
HATCH
  5
F9
330
17
100
AcDbEntity
  8
0
 62
98
100
AcDbHatch
 10
0.0
 20
0.0
 30
0.0
210
0.0
220
0.0
230
1.0
  2
SOLID
 70
1
 71
0
 91
1
 92
3
 72
0
 73
1
 93
6
 10
1409.4317917401759
 20
253.2074730968214
 10
1506.6779256580687
 20
253.64271788225886
 10
1554.6779256580687
 20
336.7811566455651
 10
1506.4317917401759
 20
421.21640143100257
 10
1409.185657822283
 20
420.7811566455651
 10
1361.185657822283
 20
337.64271788225886
 97
0
 75
1
 76
1
 98
0
  0
LWPOLYLINE
  5
FA
330
17
100
AcDbEntity
  8
0
 62
250
100
AcDbPolyline
 90
6
 70
1
 10
1409.4317917401759
 20
253.2074730968214
 10
1506.6779256580687
 20
253.64271788225886
 10
1554.6779256580687
 20
336.7811566455651
 10
1506.4317917401759
 20
421.21640143100257
 10
1409.185657822283
 20
420.7811566455651
 10
1361.185657822283
 20
337.64271788225886
  0
MTEXT
  5
FB
330
17
100
AcDbEntity
  8
0
 62
2
100
AcDbMText
 10
1457.9317917401759
 20
337.211937263912
 30
0.0
 40
10.0
 71
5
  1
IsEngine: True\P MB: 29\P wagon: 0
  0
HATCH
  5
FC
330
17
100
AcDbEntity
  8
0
 62
98
100
AcDbHatch
 10
0.0
 20
0.0
 30
0.0
210
0.0
220
0.0
230
1.0
  2
SOLID
 70
1
 71
0
 91
1
 92
3
 72
0
 73
1
 93
6
 10
1554.6779256580687
 20
336.7811566455651
 10
1651.9240595759616
 20
337.21640143100257
 10
1700.4240595759616
 20
421.2208655980931
 10
1651.6779256580687
 20
504.79008497974615
 10
1554.9317917401759
 20
505.2208655980931
 10
1506.4317917401759
 20
421.21640143100257
 97
0
 75
1
 76
1
 98
0
  0
LWPOLYLINE
  5
FD
330
17
100
AcDbEntity
  8
0
 62
250
100
AcDbPolyline
 90
6
 70
1
 10
1554.6779256580687
 20
336.7811566455651
 10
1651.9240595759616
 20
337.21640143100257
 10
1700.4240595759616
 20
421.2208655980931
 10
1651.6779256580687
 20
504.79008497974615
 10
1554.9317917401759
 20
505.2208655980931
 10
1506.4317917401759
 20
421.21640143100257
  0
MTEXT
  5
FE
330
17
100
AcDbEntity
  8
0
 62
2
100
AcDbMText
 10
1603.3445923247355
 20
421.07429594725045
 30
0.0
 40
10.0
 71
5
  1
IsEngine: False\P MB: 29\P wagon: 0
  0
HATCH
  5
FF
330
17
100
AcDbEntity
  8
0
 62
98
100
AcDbHatch
 10
0.0
 20
0.0
 30
0.0
210
0.0
220
0.0
230
1.0
  2
SOLID
 70
1
 71
0
 91
1
 92
3
 72
0
 73
1
 93
6
 10
1700.4240595759616
 20
421.2208655980931
 10
1796.3041680900699
 20
421.29008497974615
 10
1844.8041680900699
 20
505.2945491468368
 10
1796.9240595759616
 20
588.3637685284899
 10
1700.1779256580687
 20
588.7945491468369
 10
1651.6779256580687
 20
504.79008497974615
 97
0
 75
1
 76
1
 98
0
  0
LWPOLYLINE
  5
100
330
17
100
AcDbEntity
  8
0
 62
250
100
AcDbPolyline
 90
6
 70
1
 10
1700.4240595759616
 20
421.2208655980931
 10
1796.3041680900699
 20
421.29008497974615
 10
1844.8041680900699
 20
505.2945491468368
 10
1796.9240595759616
 20
588.3637685284899
 10
1700.1779256580687
 20
588.7945491468369
 10
1651.6779256580687
 20
504.79008497974615
  0
MTEXT
  5
101
330
17
100
AcDbEntity
  8
0
 62
2
100
AcDbMText
 10
1748.3853844413668
 20
504.95898372995816
 30
0.0
 40
10.0
 71
5
  1
IsEngine: False\P MB: 29\P wagon: 0
  0
ENDSEC
  0
SECTION
  2
OBJECTS
  0
DICTIONARY
  5
A
330
0
100
AcDbDictionary
281
1
  3
ACAD_COLOR
350
B
  3
ACAD_GROUP
350
C
  3
ACAD_LAYOUT
350
D
  3
ACAD_MATERIAL
350
E
  3
ACAD_MLEADERSTYLE
350
F
  3
ACAD_MLINESTYLE
350
10
  3
ACAD_PLOTSETTINGS
350
11
  3
ACAD_PLOTSTYLENAME
350
12
  3
ACAD_SCALELIST
350
14
  3
ACAD_TABLESTYLE
350
15
  3
ACAD_VISUALSTYLE
350
16
  3
EZDXF_META
350
2D
  0
DICTIONARY
  5
B
330
A
100
AcDbDictionary
281
1
  0
DICTIONARY
  5
C
330
A
100
AcDbDictionary
281
1
  0
DICTIONARY
  5
D
330
A
100
AcDbDictionary
281
1
  3
Model
350
1A
  3
Layout1
350
1E
  0
DICTIONARY
  5
E
330
A
100
AcDbDictionary
281
1
  3
ByBlock
350
1F
  3
ByLayer
350
20
  3
Global
350
21
  0
DICTIONARY
  5
F
330
A
100
AcDbDictionary
281
1
  3
Standard
350
2C
  0
DICTIONARY
  5
10
330
A
100
AcDbDictionary
281
1
  3
Standard
350
22
  0
DICTIONARY
  5
11
330
A
100
AcDbDictionary
281
1
  0
ACDBDICTIONARYWDFLT
  5
12
330
A
100
AcDbDictionary
281
1
  3
Normal
350
13
100
AcDbDictionaryWithDefault
340
13
  0
ACDBPLACEHOLDER
  5
13
330
12
  0
DICTIONARY
  5
14
330
A
100
AcDbDictionary
281
1
  0
DICTIONARY
  5
15
330
A
100
AcDbDictionary
281
1
  0
DICTIONARY
  5
16
330
A
100
AcDbDictionary
281
1
  3
2dWireframe
350
5A
  3
Basic
350
5B
  3
Brighten
350
5C
  3
ColorChange
350
5D
  3
Conceptual
350
5E
  3
Dim
350
5F
  3
EdgeColorOff
350
60
  3
Facepattern
350
61
  3
Flat
350
62
  3
FlatWithEdges
350
63
  3
Gouraud
350
64
  3
GouraudWithEdges
350
65
  3
Hidden
350
66
  3
JitterOff
350
67
  3
Linepattern
350
68
  3
Modeling
350
69
  3
OverhangOff
350
6A
  3
Realistic
350
6B
  3
Shaded
350
6C
  3
Shaded with edges
350
6D
  3
Shades of Gray
350
6E
  3
Sketchy
350
6F
  3
Thicken
350
70
  3
Wireframe
350
71
  3
X-Ray
350
72
  0
LAYOUT
  5
1A
330
D
100
AcDbPlotSettings
  1

  4
A3
  6

 40
7.5
 41
20.0
 42
7.5
 43
20.0
 44
420.0
 45
297.0
 46
0.0
 47
0.0
 48
0.0
 49
0.0
140
0.0
141
0.0
142
1.0
143
1.0
 70
1024
 72
1
 73
0
 74
5
  7

 75
16
 76
0
 77
2
 78
300
147
1.0
148
0.0
149
0.0
100
AcDbLayout
  1
Model
 70
1
 71
0
 10
0.0
 20
0.0
 11
420.0
 21
297.0
 12
0.0
 22
0.0
 32
0.0
 14
1e+20
 24
1e+20
 34
1e+20
 15
-1e+20
 25
-1e+20
 35
-1e+20
146
0.0
 13
0.0
 23
0.0
 33
0.0
 16
1.0
 26
0.0
 36
0.0
 17
0.0
 27
1.0
 37
0.0
 76
1
330
17
  0
LAYOUT
  5
1E
330
D
100
AcDbPlotSettings
  1

  4
A3
  6

 40
7.5
 41
20.0
 42
7.5
 43
20.0
 44
420.0
 45
297.0
 46
0.0
 47
0.0
 48
0.0
 49
0.0
140
0.0
141
0.0
142
1.0
143
1.0
 70
0
 72
1
 73
0
 74
5
  7

 75
16
 76
0
 77
2
 78
300
147
1.0
148
0.0
149
0.0
100
AcDbLayout
  1
Layout1
 70
1
 71
1
 10
0.0
 20
0.0
 11
420.0
 21
297.0
 12
0.0
 22
0.0
 32
0.0
 14
1e+20
 24
1e+20
 34
1e+20
 15
-1e+20
 25
-1e+20
 35
-1e+20
146
0.0
 13
0.0
 23
0.0
 33
0.0
 16
1.0
 26
0.0
 36
0.0
 17
0.0
 27
1.0
 37
0.0
 76
1
330
1B
  0
MATERIAL
  5
1F
102
{ACAD_REACTORS
330
E
102
}
330
E
100
AcDbMaterial
  1
ByBlock
  2

 70
0
 40
1.0
 71
1
 41
1.0
 91
-1023410177
 42
1.0
 72
1
  3

 73
1
 74
1
 75
1
 44
0.5
 73
0
 45
1.0
 46
1.0
 77
1
  4

 78
1
 79
1
170
1
 48
1.0
171
1
  6

172
1
173
1
174
1
140
1.0
141
1.0
175
1
  7

176
1
177
1
178
1
143
1.0
179
1
  8

270
1
271
1
272
1
145
1.0
146
1.0
273
1
  9

274
1
275
1
276
1
 42
1.0
 72
1
  3

 73
1
 74
1
 75
1
 94
63
  0
MATERIAL
  5
20
102
{ACAD_REACTORS
330
E
102
}
330
E
100
AcDbMaterial
  1
ByLayer
  2

 70
0
 40
1.0
 71
1
 41
1.0
 91
-1023410177
 42
1.0
 72
1
  3

 73
1
 74
1
 75
1
 44
0.5
 73
0
 45
1.0
 46
1.0
 77
1
  4

 78
1
 79
1
170
1
 48
1.0
171
1
  6

172
1
173
1
174
1
140
1.0
141
1.0
175
1
  7

176
1
177
1
178
1
143
1.0
179
1
  8

270
1
271
1
272
1
145
1.0
146
1.0
273
1
  9

274
1
275
1
276
1
 42
1.0
 72
1
  3

 73
1
 74
1
 75
1
 94
63
  0
MATERIAL
  5
21
102
{ACAD_REACTORS
330
E
102
}
330
E
100
AcDbMaterial
  1
Global
  2

 70
0
 40
1.0
 71
1
 41
1.0
 91
-1023410177
 42
1.0
 72
1
  3

 73
1
 74
1
 75
1
 44
0.5
 73
0
 45
1.0
 46
1.0
 77
1
  4

 78
1
 79
1
170
1
 48
1.0
171
1
  6

172
1
173
1
174
1
140
1.0
141
1.0
175
1
  7

176
1
177
1
178
1
143
1.0
179
1
  8

270
1
271
1
272
1
145
1.0
146
1.0
273
1
  9

274
1
275
1
276
1
 42
1.0
 72
1
  3

 73
1
 74
1
 75
1
 94
63
  0
MLINESTYLE
  5
22
102
{ACAD_REACTORS
330
10
102
}
330
10
100
AcDbMlineStyle
  2
Standard
 70
0
  3

 62
256
 51
90.0
 52
90.0
 71
2
 49
0.5
 62
256
  6
BYLAYER
 49
-0.5
 62
256
  6
BYLAYER
  0
MLEADERSTYLE
  5
2C
102
{ACAD_REACTORS
330
F
102
}
330
F
100
AcDbMLeaderStyle
179
2
170
2
171
1
172
0
 90
2
 40
0.0
 41
0.0
173
1
 91
-1056964608
 92
-2
290
1
 42
2.0
291
1
 43
8.0
  3
Standard
 44
4.0
300

342
29
174
1
175
1
176
0
178
1
 93
-1056964608
 45
4.0
292
0
297
0
 46
4.0
 94
-1056964608
 47
1.0
 49
1.0
140
1.0
294
1
141
0.0
177
0
142
1.0
295
0
296
0
143
3.75
271
0
272
9
273
9
  0
DICTIONARY
  5
2D
330
A
100
AcDbDictionary
280
1
281
1
  3
CREATED_BY_EZDXF
350
2E
  3
WRITTEN_BY_EZDXF
350
104
  0
DICTIONARYVAR
  5
2E
330
2D
100
DictionaryVariables
280
0
  1
1.4.4 @ 2026-06-26T14:36:37.561767+00:00
  0
VISUALSTYLE
  5
5A
102
{ACAD_REACTORS
330
16
102
}
330
16
100
AcDbVisualStyle
  2
2dWireframe
 70
4
 90
0
 40
0.6
 62
7
290
0
291
0
  0
VISUALSTYLE
  5
5B
102
{ACAD_REACTORS
330
16
102
}
330
16
100
AcDbVisualStyle
  2
Basic
 70
7
 90
1
 40
0.6
 62
7
290
0
291
1
  0
VISUALSTYLE
  5
5C
102
{ACAD_REACTORS
330
16
102
}
330
16
100
AcDbVisualStyle
  2
Brighten
 70
12
 90
2
 40
0.6
 62
7
290
0
291
1
  0
VISUALSTYLE
  5
5D
102
{ACAD_REACTORS
330
16
102
}
330
16
100
AcDbVisualStyle
  2
ColorChange
 70
16
 90
2
 40
0.6
 62
8
290
0
291
1
  0
VISUALSTYLE
  5
5E
102
{ACAD_REACTORS
330
16
102
}
330
16
100
AcDbVisualStyle
  2
Conceptual
 70
9
 90
3
 40
0.6
 62
7
290
0
291
0
  0
VISUALSTYLE
  5
5F
102
{ACAD_REACTORS
330
16
102
}
330
16
100
AcDbVisualStyle
  2
Dim
 70
11
 90
2
 40
0.6
 62
7
290
0
291
1
  0
VISUALSTYLE
  5
60
102
{ACAD_REACTORS
330
16
102
}
330
16
100
AcDbVisualStyle
  2
EdgeColorOff
 70
22
 90
2
 40
0.6
 62
7
290
0
291
1
  0
VISUALSTYLE
  5
61
102
{ACAD_REACTORS
330
16
102
}
330
16
100
AcDbVisualStyle
  2
Facepattern
 70
15
 90
2
 40
0.6
 62
7
290
0
291
1
  0
VISUALSTYLE
  5
62
102
{ACAD_REACTORS
330
16
102
}
330
16
100
AcDbVisualStyle
  2
Flat
 70
0
 90
2
 40
0.6
 62
7
290
0
291
1
  0
VISUALSTYLE
  5
63
102
{ACAD_REACTORS
330
16
102
}
330
16
100
AcDbVisualStyle
  2
FlatWithEdges
 70
1
 90
2
 40
0.6
 62
7
290
0
291
1
  0
VISUALSTYLE
  5
64
102
{ACAD_REACTORS
330
16
102
}
330
16
100
AcDbVisualStyle
  2
Gouraud
 70
2
 90
2
 40
0.6
 62
7
290
0
291
1
  0
VISUALSTYLE
  5
65
102
{ACAD_REACTORS
330
16
102
}
330
16
100
AcDbVisualStyle
  2
GouraudWithEdges
 70
3
 90
2
 40
0.6
 62
7
290
0
291
1
  0
VISUALSTYLE
  5
66
102
{ACAD_REACTORS
330
16
102
}
330
16
100
AcDbVisualStyle
  2
Hidden
 70
6
 90
1
 40
0.6
 62
7
290
0
291
0
  0
VISUALSTYLE
  5
67
102
{ACAD_REACTORS
330
16
102
}
330
16
100
AcDbVisualStyle
  2
JitterOff
 70
20
 90
2
 40
0.6
 62
7
290
0
291
1
  0
VISUALSTYLE
  5
68
102
{ACAD_REACTORS
330
16
102
}
330
16
100
AcDbVisualStyle
  2
Linepattern
 70
14
 90
2
 40
0.6
 62
7
290
0
291
1
  0
VISUALSTYLE
  5
69
102
{ACAD_REACTORS
330
16
102
}
330
16
100
AcDbVisualStyle
  2
Modeling
 70
10
 90
2
 40
0.6
 62
7
290
0
291
0
  0
VISUALSTYLE
  5
6A
102
{ACAD_REACTORS
330
16
102
}
330
16
100
AcDbVisualStyle
  2
OverhangOff
 70
21
 90
2
 40
0.6
 62
7
290
0
291
1
  0
VISUALSTYLE
  5
6B
102
{ACAD_REACTORS
330
16
102
}
330
16
100
AcDbVisualStyle
  2
Realistic
 70
8
 90
2
 40
0.6
 62
7
290
0
291
0
  0
VISUALSTYLE
  5
6C
102
{ACAD_REACTORS
330
16
102
}
330
16
100
AcDbVisualStyle
  2
Shaded
 70
27
 90
2
 40
0.6
 62
7
290
0
291
0
  0
VISUALSTYLE
  5
6D
102
{ACAD_REACTORS
330
16
102
}
330
16
100
AcDbVisualStyle
  2
Shaded with edges
 70
26
 90
2
 40
0.6
 62
7
290
0
291
0
  0
VISUALSTYLE
  5
6E
102
{ACAD_REACTORS
330
16
102
}
330
16
100
AcDbVisualStyle
  2
Shades of Gray
 70
23
 90
2
 40
0.6
 62
7
290
0
291
0
  0
VISUALSTYLE
  5
6F
102
{ACAD_REACTORS
330
16
102
}
330
16
100
AcDbVisualStyle
  2
Sketchy
 70
24
 90
1
 40
0.6
 62
7
290
0
291
0
  0
VISUALSTYLE
  5
70
102
{ACAD_REACTORS
330
16
102
}
330
16
100
AcDbVisualStyle
  2
Thicken
 70
13
 90
2
 40
0.6
 62
7
290
0
291
1
  0
VISUALSTYLE
  5
71
102
{ACAD_REACTORS
330
16
102
}
330
16
100
AcDbVisualStyle
  2
Wireframe
 70
5
 90
0
 40
0.6
 62
7
290
0
291
0
  0
VISUALSTYLE
  5
72
102
{ACAD_REACTORS
330
16
102
}
330
16
100
AcDbVisualStyle
  2
X-Ray
 70
25
 90
2
 40
0.5
 62
7
290
0
291
0
  0
DICTIONARYVAR
  5
104
330
2D
100
DictionaryVariables
280
0
  1
1.4.4 @ 2026-06-26T14:36:37.731780+00:00
  0
ENDSEC
  0
EOF
